<?xml version="1.0" encoding="iso-8859-1"?>
<!-- Generator: Adobe Illustrator 19.0.0, SVG Export Plug-In . SVG Version: 6.00 Build 0)  -->
<svg version="1.1" id="Capa_1" xmlns="http://www.w3.org/2000/svg" xmlns:xlink="http://www.w3.org/1999/xlink" x="0px" y="0px"
	 viewBox="0 0 511.999 511.999" style="enable-background:new 0 0 511.999 511.999;" xml:space="preserve">
<path style="fill:#78B9EB;" d="M400.894,111.01c-11.685-0.034-23.284,1.962-34.287,5.885c0.085-1.962,0.171-3.923,0.171-5.885
	c0-56.522-45.827-102.349-102.349-102.349S162.08,54.488,162.08,111.01c-0.017,4.452,0.264,8.896,0.853,13.305
	c-8.444-3.207-17.408-4.819-26.44-4.776c-36.479,0.085-67.891,25.758-75.226,61.495c-36.692,8.58-59.49,45.281-50.91,81.973
	c7.216,30.867,34.739,52.701,66.433,52.701h324.105c2.9,0,5.714-0.085,8.529-0.341c56.335-4.614,98.272-54.015,93.658-110.358
	C498.731,151.83,454.252,110.916,400.894,111.01z"/>
<g>
	<path style="fill:#006DF0;" d="M187.667,503.347c14.133,0,25.587-11.454,25.587-25.587l0,0c0-14.133-25.587-59.703-25.587-59.703
		s-25.587,45.571-25.587,59.703S173.535,503.347,187.667,503.347L187.667,503.347z"/>
	<path style="fill:#006DF0;" d="M349.72,477.76c0-14.133-25.587-59.703-25.587-59.703s-25.587,45.571-25.587,59.703
		s11.455,25.587,25.587,25.587C338.265,503.347,349.72,491.892,349.72,477.76L349.72,477.76z"/>
	<path style="fill:#006DF0;" d="M281.487,409.527c0-14.133-25.587-59.703-25.587-59.703s-25.587,45.571-25.587,59.703
		c0,14.133,11.455,25.587,25.587,25.587C270.033,435.114,281.487,423.66,281.487,409.527z"/>
	<path style="fill:#006DF0;" d="M145.022,409.527c0-14.133-25.587-59.703-25.587-59.703s-25.587,45.571-25.587,59.703
		c0,14.133,11.455,25.587,25.587,25.587S145.022,423.66,145.022,409.527z"/>
	<path style="fill:#006DF0;" d="M417.952,409.527c0-14.133-25.587-59.703-25.587-59.703s-25.587,45.571-25.587,59.703
		c0,14.133,11.455,25.587,25.587,25.587C406.498,435.114,417.952,423.66,417.952,409.527z"/>
</g>
<path style="fill:#FF9811;" d="M162.933,124.315c-0.589-4.41-0.87-8.853-0.853-13.305c-0.085-26.79,10.397-52.531,29.169-71.644
	C146.941,23.288,97.984,46.18,81.907,90.489c-3.378,9.314-5.109,19.139-5.117,29.05c0.009,8.29,1.211,16.538,3.582,24.478
	c14.474-15.625,34.816-24.504,56.121-24.478C145.525,119.496,154.489,121.117,162.933,124.315z"/>
<g>
	<path style="fill:#231F20;" d="M187.667,511.876c-18.841,0-34.116-15.276-34.116-34.116c0-15.574,22.218-55.942,26.679-63.883
		c2.678-4.111,8.179-5.262,12.29-2.584c1.032,0.674,1.911,1.552,2.584,2.584c4.503,7.941,26.679,48.309,26.679,63.883
		C221.784,496.6,206.508,511.876,187.667,511.876z M187.667,436.07c-7.591,13.041-13.331,27.071-17.058,41.69
		c0,9.425,7.634,17.058,17.058,17.058s17.058-7.634,17.058-17.058C201.007,463.141,195.267,449.111,187.667,436.07z"/>
	<path style="fill:#231F20;" d="M324.132,511.876c-18.841,0-34.116-15.276-34.116-34.116c0-15.574,22.176-55.942,26.679-63.883
		c2.678-4.111,8.179-5.262,12.29-2.584c1.032,0.674,1.91,1.552,2.584,2.584c4.503,7.941,26.679,48.309,26.679,63.883
		C358.249,496.6,342.973,511.876,324.132,511.876z M324.132,436.07c-7.591,13.041-13.331,27.071-17.058,41.69
		c0,9.425,7.634,17.058,17.058,17.058c9.425,0,17.058-7.634,17.058-17.058C337.472,463.141,331.732,449.111,324.132,436.07z"/>
	<path style="fill:#231F20;" d="M255.9,443.643c-18.841,0-34.116-15.276-34.116-34.116c0-15.574,22.218-55.942,26.679-63.883
		c2.678-4.111,8.179-5.262,12.29-2.584c1.032,0.674,1.911,1.552,2.584,2.584c4.503,7.941,26.679,48.309,26.679,63.883
		C290.016,428.368,274.741,443.643,255.9,443.643z M255.9,367.837c-7.591,13.041-13.331,27.071-17.058,41.69
		c0,9.425,7.634,17.058,17.058,17.058c9.425,0,17.058-7.634,17.058-17.058C269.239,394.908,263.499,380.878,255.9,367.837z"/>
	<path style="fill:#231F20;" d="M119.435,443.643c-18.841,0-34.116-15.276-34.116-34.116c0-15.574,22.218-55.942,26.679-63.883
		c2.678-4.111,8.179-5.262,12.29-2.584c1.032,0.674,1.911,1.552,2.584,2.584c4.503,7.941,26.679,48.309,26.679,63.883
		C153.551,428.368,138.275,443.643,119.435,443.643z M119.435,367.837c-7.591,13.041-13.331,27.071-17.058,41.69
		c0,9.425,7.634,17.058,17.058,17.058s17.058-7.634,17.058-17.058C132.774,394.908,127.034,380.878,119.435,367.837z"/>
	<path style="fill:#231F20;" d="M392.365,443.643c-18.841,0-34.116-15.276-34.116-34.116c0-15.574,22.176-55.942,26.679-63.883
		c2.678-4.111,8.179-5.262,12.29-2.584c1.032,0.674,1.911,1.552,2.584,2.584c4.503,7.941,26.679,48.309,26.679,63.883
		C426.481,428.368,411.206,443.643,392.365,443.643z M392.365,367.837c-7.591,13.041-13.331,27.071-17.058,41.69
		c0,9.425,7.634,17.058,17.058,17.058s17.058-7.634,17.058-17.058C405.704,394.908,399.964,380.878,392.365,367.837z"/>
	<path style="fill:#231F20;" d="M400.894,102.481c-8.666-0.017-17.297,0.989-25.724,2.985C372.16,44.355,320.175-2.751,259.056,0.26
		c-26.065,1.288-50.842,11.727-69.955,29.494C139.632,14.717,87.34,42.632,72.303,92.101c-4.921,16.197-5.365,33.417-1.271,49.835
		c-7.889,9.382-13.655,20.359-16.879,32.189C13.64,186.62-9.064,229.598,3.431,270.102c9.928,32.18,39.677,54.134,73.359,54.134
		h324.105c3.164,0,6.235-0.094,9.228-0.367c61.034-4.972,106.477-58.484,101.504-119.518
		C506.927,146.712,458.721,102.37,400.894,102.481z M162.08,42.777c4.657,0,9.305,0.418,13.885,1.245
		c-1.015,1.339-1.919,2.738-2.866,4.12c-0.606,0.853-1.254,1.706-1.834,2.618c-1.783,2.755-3.463,5.569-4.99,8.461
		c-0.222,0.426-0.401,0.853-0.614,1.296c-1.288,2.508-2.482,5.066-3.565,7.676c-0.435,1.049-0.802,2.115-1.211,3.181
		c-0.776,2.038-1.51,4.085-2.166,6.167c-0.375,1.203-0.716,2.405-1.049,3.616c-0.563,2.038-1.066,4.085-1.518,6.158
		c-0.264,1.22-0.52,2.431-0.751,3.659c-0.401,2.226-0.708,4.478-0.972,6.738c-0.128,1.075-0.299,2.141-0.392,3.224
		c-0.299,3.309-0.486,6.661-0.486,10.073c0,0.571,0,1.143,0,1.706c-5.612-1.143-11.327-1.714-17.058-1.706
		c-2.678,0-5.339,0.162-7.992,0.418c-0.853,0.077-1.629,0.196-2.439,0.299c-1.876,0.23-3.736,0.52-5.578,0.853
		c-0.853,0.162-1.706,0.333-2.559,0.529c-1.962,0.435-3.906,0.955-5.825,1.535c-0.623,0.188-1.262,0.341-1.876,0.546
		c-2.473,0.802-4.904,1.714-7.292,2.738c-0.657,0.281-1.288,0.614-1.936,0.913c-1.706,0.802-3.463,1.646-5.117,2.559
		c-0.853,0.452-1.706,0.93-2.49,1.416c-1.518,0.853-2.994,1.834-4.452,2.815c-0.768,0.52-1.535,1.015-2.286,1.561
		c-0.264,0.188-0.554,0.358-0.853,0.554c-0.307-2.721-0.469-5.467-0.478-8.205C85.37,77.166,119.708,42.828,162.08,42.777z
		 M408.638,306.871c-2.559,0.239-5.117,0.307-7.744,0.307H76.789c-32.973,0.026-59.729-26.679-59.755-59.652
		c-0.026-27.754,19.08-51.857,46.108-58.185c3.25-0.751,5.757-3.326,6.431-6.584c6.516-31.788,34.466-54.637,66.919-54.688
		c7.983-0.051,15.907,1.373,23.37,4.205c4.392,1.697,9.331-0.486,11.028-4.887c0.52-1.348,0.691-2.798,0.495-4.222
		c-0.537-4.026-0.802-8.086-0.776-12.154c0-51.814,42.006-93.82,93.82-93.82s93.82,42.006,93.82,93.82
		c0,1.842-0.085,3.685-0.162,5.518c-0.205,4.708,3.446,8.683,8.154,8.887c1.109,0.051,2.218-0.119,3.258-0.495
		c10.073-3.599,20.7-5.416,31.396-5.382c51.814-0.085,93.888,41.844,93.982,93.658C494.961,262.136,457.416,302.922,408.638,306.871
		z"/>
</g>
<g>
</g>
<g>
</g>
<g>
</g>
<g>
</g>
<g>
</g>
<g>
</g>
<g>
</g>
<g>
</g>
<g>
</g>
<g>
</g>
<g>
</g>
<g>
</g>
<g>
</g>
<g>
</g>
<g>
</g>
</svg>
