<?xml version="1.0" encoding="iso-8859-1"?>
<!-- Generator: Adobe Illustrator 19.0.0, SVG Export Plug-In . SVG Version: 6.00 Build 0)  -->
<svg version="1.1" id="Capa_1" xmlns="http://www.w3.org/2000/svg" xmlns:xlink="http://www.w3.org/1999/xlink" x="0px" y="0px"
	 viewBox="0 0 512 512" style="enable-background:new 0 0 512 512;" xml:space="preserve">
<path style="fill:#78B9EB;" d="M401.257,110.967c-11.69-0.034-23.294,1.963-34.301,5.888c0.085-1.963,0.171-3.925,0.171-5.888
	c0-56.546-45.846-102.391-102.391-102.391S162.343,54.421,162.343,110.967c-0.017,4.454,0.265,8.9,0.853,13.311
	c-8.447-3.208-17.415-4.821-26.451-4.778c-36.52,0-67.996,25.726-75.258,61.52c-36.707,8.584-59.515,45.3-50.931,82.007
	c7.219,30.88,34.753,52.723,66.461,52.723h324.24c2.901,0,5.717-0.085,8.533-0.341c56.358-4.616,98.313-54.037,93.697-110.404
	C499.134,151.804,454.637,110.873,401.257,110.967z"/>
<path style="fill:#231F20;" d="M401.257,324.282H77.017c-42.416,0.009-76.802-34.361-76.819-76.768
	c-0.009-33.704,21.954-63.466,54.157-73.406c10.103-37.202,43.841-63.056,82.391-63.141c5.734-0.009,11.451,0.563,17.065,1.707
	c0-0.563,0-1.135,0-1.707C153.785,49.711,203.428,0.026,264.683,0c59.14-0.026,107.904,46.358,110.83,105.421
	c59.643-13.993,119.337,23.004,133.331,82.647c13.994,59.643-23.004,119.337-82.647,133.331c-5.162,1.212-10.41,2.056-15.7,2.517
	C407.494,324.188,404.422,324.282,401.257,324.282z M136.745,128.032c-32.441,0.06-60.377,22.893-66.887,54.677
	c-0.666,3.277-3.183,5.87-6.442,6.621c-32.125,7.517-52.075,39.643-44.557,71.768c6.323,27.014,30.41,46.119,58.158,46.127h324.24
	c2.637,0,5.196-0.068,7.756-0.307c51.665-4.19,90.156-49.472,85.966-101.137c-3.959-48.798-44.762-86.359-93.722-86.273
	c-10.708-0.034-21.332,1.783-31.417,5.384c-4.437,1.596-9.318-0.708-10.913-5.145c-0.375-1.041-0.546-2.15-0.495-3.259
	c0.085-1.843,0.162-3.678,0.162-5.512c0-51.836-42.023-93.859-93.859-93.859s-93.859,42.023-93.859,93.859
	c-0.017,4.062,0.239,8.123,0.776,12.15c0.64,4.667-2.62,8.976-7.295,9.616c-1.433,0.196-2.893,0.026-4.232-0.495
	C152.65,129.406,144.732,127.981,136.745,128.032z"/>
<g>
	<path style="fill:#006DF0;" d="M285.759,358.413c-2.355-4.079-7.577-5.478-11.656-3.123l-9.386,5.41V349.88
		c0-4.71-3.823-8.533-8.533-8.533c-4.71,0-8.533,3.823-8.533,8.533V360.7l-9.386-5.41c-4.096-2.329-9.309-0.896-11.639,3.2
		c-2.304,4.062-0.922,9.215,3.106,11.579l9.403,5.41l-9.386,5.41c-4.096,2.329-5.529,7.534-3.2,11.638
		c2.329,4.096,7.534,5.529,11.639,3.2c0.034-0.017,0.068-0.034,0.102-0.06l9.386-5.41v10.819c0,4.71,3.823,8.533,8.533,8.533
		c4.71,0,8.533-3.823,8.533-8.533v-10.819l9.386,5.41c4.062,2.381,9.292,1.024,11.673-3.046c2.381-4.062,1.024-9.292-3.046-11.673
		c-0.034-0.017-0.068-0.043-0.102-0.06l-9.386-5.41l9.386-5.41C286.723,367.705,288.114,362.491,285.759,358.413z"/>
	<path style="fill:#006DF0;" d="M419.175,380.888l-9.386-5.41l9.386-5.41c4.062-2.381,5.427-7.611,3.046-11.673
		c-2.364-4.027-7.517-5.41-11.579-3.106l-9.386,5.41V349.88c0-4.71-3.823-8.533-8.533-8.533s-8.533,3.823-8.533,8.533V360.7
		l-9.386-5.41c-4.096-2.329-9.309-0.896-11.638,3.2c-2.304,4.062-0.922,9.215,3.106,11.579l9.386,5.41l-9.386,5.41
		c-4.096,2.329-5.529,7.534-3.2,11.638c2.329,4.096,7.534,5.529,11.638,3.2c0.034-0.017,0.068-0.034,0.102-0.06l9.386-5.41v10.819
		c0,4.71,3.823,8.533,8.533,8.533s8.533-3.823,8.533-8.533v-10.819l9.386,5.41c4.096,2.329,9.309,0.896,11.638-3.2
		C424.576,388.405,423.194,383.251,419.175,380.888z"/>
	<path style="fill:#006DF0;" d="M217.498,460.804c-2.355-4.079-7.577-5.478-11.656-3.123l-9.386,5.41v-10.819
		c0-4.71-3.823-8.533-8.533-8.533s-8.533,3.823-8.533,8.533v10.819l-9.386-5.41c-4.096-2.329-9.309-0.896-11.639,3.2
		c-2.304,4.062-0.922,9.215,3.106,11.579l9.403,5.41l-9.386,5.41c-4.096,2.329-5.529,7.534-3.2,11.638
		c2.329,4.096,7.534,5.529,11.638,3.2c0.034-0.017,0.068-0.034,0.102-0.06l9.386-5.41v10.819c0,4.71,3.823,8.533,8.533,8.533
		s8.533-3.823,8.533-8.533v-10.819l9.386,5.41c4.062,2.381,9.292,1.024,11.673-3.046c2.381-4.07,1.024-9.292-3.046-11.673
		c-0.034-0.017-0.068-0.043-0.102-0.06l-9.386-5.41l9.386-5.41C218.462,470.096,219.853,464.883,217.498,460.804z"/>
	<path style="fill:#006DF0;" d="M149.237,358.413c-2.355-4.079-7.577-5.478-11.656-3.123l-9.386,5.41V349.88
		c0-4.71-3.823-8.533-8.533-8.533s-8.533,3.823-8.533,8.533V360.7l-9.386-5.41c-4.096-2.329-9.309-0.896-11.638,3.2
		c-2.304,4.062-0.922,9.215,3.106,11.579l9.403,5.41l-9.386,5.41c-4.096,2.329-5.529,7.534-3.2,11.638
		c2.329,4.096,7.534,5.529,11.639,3.2c0.034-0.017,0.068-0.034,0.102-0.06l9.386-5.41v10.819c0,4.71,3.823,8.533,8.533,8.533
		c4.71,0,8.533-3.823,8.533-8.533v-10.819l9.386,5.41c4.062,2.381,9.292,1.024,11.673-3.046s1.024-9.292-3.046-11.673
		c-0.034-0.017-0.068-0.043-0.102-0.06l-9.386-5.41l9.386-5.41C150.201,367.705,151.592,362.491,149.237,358.413z"/>
	<path style="fill:#006DF0;" d="M354.02,460.804c-2.355-4.079-7.577-5.478-11.656-3.123l-9.386,5.41v-10.819
		c0-4.71-3.823-8.533-8.533-8.533s-8.533,3.823-8.533,8.533v10.819l-9.386-5.41c-4.096-2.329-9.309-0.896-11.638,3.2
		c-2.304,4.062-0.922,9.215,3.106,11.579l9.403,5.41l-9.386,5.41c-4.096,2.329-5.529,7.534-3.2,11.638
		c2.329,4.096,7.534,5.529,11.638,3.2c0.034-0.017,0.068-0.034,0.102-0.06l9.386-5.41v10.819c0,4.71,3.823,8.533,8.533,8.533
		s8.533-3.823,8.533-8.533v-10.819l9.386,5.41c4.062,2.381,9.292,1.024,11.673-3.046c2.381-4.062,1.024-9.292-3.046-11.673
		c-0.034-0.017-0.068-0.043-0.102-0.06l-9.386-5.41l9.386-5.41C354.984,470.096,356.375,464.883,354.02,460.804z"/>
</g>
<g>
</g>
<g>
</g>
<g>
</g>
<g>
</g>
<g>
</g>
<g>
</g>
<g>
</g>
<g>
</g>
<g>
</g>
<g>
</g>
<g>
</g>
<g>
</g>
<g>
</g>
<g>
</g>
<g>
</g>
</svg>
