<?xml version="1.0" encoding="iso-8859-1"?>
<!-- Generator: Adobe Illustrator 19.0.0, SVG Export Plug-In . SVG Version: 6.00 Build 0)  -->
<svg version="1.1" id="Capa_1" xmlns="http://www.w3.org/2000/svg" xmlns:xlink="http://www.w3.org/1999/xlink" x="0px" y="0px"
	 viewBox="0 0 512 512" style="enable-background:new 0 0 512 512;" xml:space="preserve">
<path style="fill:#78B9EB;" d="M400.265,110.16c-11.611-0.034-23.137,1.949-34.07,5.848c0.085-1.949,0.169-3.899,0.169-5.848
	c0-47.452-32.807-88.599-79.073-99.159c-1.78-0.424-3.644-0.763-5.509-1.017c-2.627-0.509-5.255-0.848-7.967-1.102
	c-3.051-0.254-6.102-0.424-9.153-0.424c-27.358-0.034-53.571,10.967-72.717,30.51c-6.441,6.5-11.925,13.891-16.272,21.951
	c-0.11,0.246-0.254,0.475-0.424,0.678v0.085c-3.466,6.289-6.221,12.933-8.221,19.832c-1.687,5.848-2.848,11.831-3.475,17.883
	c-0.415,3.577-0.61,7.17-0.593,10.763c-0.017,4.424,0.263,8.84,0.848,13.221c-8.39-3.187-17.298-4.788-26.273-4.746
	c-11.382,0.008-22.612,2.551-32.884,7.458c-3.314,1.619-6.509,3.458-9.577,5.509c-1.814,1.178-3.543,2.475-5.17,3.899
	c-2.89,2.28-5.611,4.78-8.136,7.458c-2.441,2.568-4.678,5.314-6.695,8.221c-6.034,8.568-10.213,18.289-12.289,28.561
	c-4.899,1.136-9.653,2.839-14.153,5.085c-5.517,2.687-10.653,6.111-15.255,10.17c-3.288,2.848-6.272,6.026-8.899,9.492
	c-22.824,29.638-17.306,72.174,12.34,95.006c11.865,9.136,26.417,14.086,41.393,14.069h322.055c2.882,0,5.678-0.085,8.475-0.339
	c55.978-4.585,97.651-53.673,93.065-109.66C497.484,150.722,453.286,110.067,400.265,110.16z"/>
<path style="fill:#231F20;" d="M400.265,322.038H78.21c-42.104-0.051-76.225-34.172-76.276-76.276
	c-0.042-16.815,5.526-33.155,15.832-46.444c2.966-3.907,6.331-7.501,10.043-10.713c5.153-4.543,10.899-8.373,17.077-11.382
	c3.475-1.763,7.085-3.221,10.814-4.348c2.568-9.526,6.78-18.535,12.45-26.603c2.271-3.263,4.788-6.348,7.526-9.221
	c2.78-2.949,5.772-5.695,8.958-8.204c1.814-1.576,3.738-3.017,5.755-4.322c3.382-2.254,6.907-4.28,10.552-6.068
	c16.671-7.899,35.451-10.221,53.546-6.602c0-0.559,0-1.127,0-1.695c-0.017-3.941,0.203-7.873,0.653-11.789
	c0.686-6.517,1.941-12.958,3.763-19.247c2.11-7.255,4.983-14.264,8.585-20.908c0.195-0.458,0.432-0.907,0.712-1.322l0.059-0.093l0,0
	c4.721-8.721,10.67-16.721,17.654-23.764c23.171-23.586,55.69-35.545,88.616-32.595c3.068,0.288,5.933,0.661,8.848,1.212
	c1.695,0.229,3.831,0.619,5.873,1.102c47.944,11.23,82.743,52.732,85.446,101.897c59.241-13.899,118.533,22.849,132.432,82.09
	s-22.849,118.533-82.09,132.433c-5.127,1.203-10.34,2.043-15.594,2.5C406.461,321.945,403.41,322.038,400.265,322.038z
	 M137.536,127.11c-10.119,0-20.112,2.271-29.248,6.636c-2.932,1.449-5.763,3.085-8.475,4.907c-1.483,0.958-2.898,2.017-4.238,3.161
	c-2.712,2.119-5.263,4.441-7.628,6.941c-2.161,2.28-4.144,4.729-5.933,7.314c-5.339,7.611-9.043,16.247-10.899,25.358
	c-0.653,3.229-3.119,5.789-6.322,6.56c-4.263,0.966-8.39,2.441-12.297,4.39c-4.873,2.365-9.399,5.382-13.467,8.958
	c-2.873,2.475-5.475,5.238-7.763,8.255c-8.043,10.34-12.399,23.069-12.382,36.172c0.034,32.748,26.578,59.292,59.326,59.326h322.055
	c2.619,0,5.161-0.076,7.704-0.305c51.317-4.161,89.548-49.139,85.387-100.456c-3.932-48.469-44.461-85.777-93.091-85.692
	c-10.628-0.042-21.188,1.771-31.197,5.348c-4.407,1.585-9.263-0.695-10.848-5.102c-0.373-1.042-0.542-2.144-0.492-3.246
	c0.085-1.822,0.161-3.644,0.161-5.475c-0.212-43.418-30.188-81.022-72.471-90.896c-1.602-0.381-3.195-0.67-4.788-0.89
	c-2.814-0.525-5.178-0.848-7.628-1.059c-2.712-0.22-5.526-0.381-8.34-0.381c-25.095-0.076-49.147,10.009-66.674,27.968
	c-5.873,5.933-10.874,12.67-14.848,20.018l0,0l-0.28,0.525c-0.059,0.11-0.119,0.237-0.186,0.356
	c-3.17,5.729-5.687,11.797-7.509,18.086c-1.551,5.373-2.61,10.874-3.187,16.442c-0.381,3.263-0.559,6.543-0.542,9.831
	c-0.017,4.034,0.237,8.068,0.771,12.069c0.636,4.636-2.61,8.916-7.246,9.551c-1.415,0.195-2.865,0.025-4.195-0.492
	C153.351,128.475,145.469,127.059,137.536,127.11z"/>
<g>
	<path style="fill:#006DF0;" d="M320.48,376.398c-4.678,0-8.475-3.797-8.475-8.475c0-2.246,0.89-4.399,2.483-5.992l23.968-23.968
		c3.365-3.254,8.729-3.161,11.984,0.203c3.17,3.288,3.17,8.492,0,11.78l-23.968,23.968
		C324.888,375.508,322.726,376.398,320.48,376.398z"/>
	<path style="fill:#006DF0;" d="M388.282,376.398c-4.678,0-8.475-3.797-8.475-8.475c0-2.246,0.89-4.399,2.483-5.992l23.968-23.968
		c3.365-3.254,8.729-3.161,11.984,0.203c3.17,3.288,3.17,8.492,0,11.78l-23.968,23.968
		C392.689,375.508,390.527,376.398,388.282,376.398z"/>
	<path style="fill:#006DF0;" d="M320.48,444.199c-4.678,0-8.475-3.797-8.475-8.475c0-2.246,0.89-4.399,2.483-5.992l23.968-23.968
		c3.365-3.254,8.729-3.161,11.984,0.203c3.17,3.288,3.17,8.492,0,11.78l-23.968,23.968
		C324.888,443.309,322.726,444.199,320.48,444.199z"/>
	<path style="fill:#006DF0;" d="M388.282,444.199c-4.678,0-8.475-3.797-8.475-8.475c0-2.246,0.89-4.399,2.483-5.992l23.968-23.968
		c3.365-3.254,8.729-3.161,11.984,0.203c3.17,3.288,3.17,8.492,0,11.78l-23.968,23.968
		C392.689,443.309,390.527,444.199,388.282,444.199z"/>
	<path style="fill:#006DF0;" d="M286.58,512c-4.678,0-8.475-3.797-8.475-8.475c0-2.246,0.89-4.399,2.483-5.992l23.968-23.968
		c3.365-3.254,8.729-3.161,11.984,0.203c3.17,3.288,3.17,8.492,0,11.78l-23.968,23.968C290.987,511.11,288.826,512,286.58,512z"/>
	<path style="fill:#006DF0;" d="M354.381,512c-4.678,0-8.475-3.797-8.475-8.475c0-2.246,0.89-4.399,2.483-5.992l23.968-23.968
		c3.365-3.254,8.729-3.161,11.984,0.203c3.17,3.288,3.17,8.492,0,11.78l-23.968,23.968C358.788,511.11,356.627,512,354.381,512z"/>
	<path style="fill:#006DF0;" d="M117.077,376.398c-4.678,0-8.475-3.797-8.475-8.475c0-2.246,0.89-4.399,2.483-5.992l23.968-23.968
		c3.254-3.365,8.619-3.458,11.984-0.212c3.365,3.254,3.458,8.619,0.212,11.984c-0.068,0.068-0.136,0.144-0.212,0.212l-23.968,23.968
		C121.484,375.508,119.323,376.398,117.077,376.398z"/>
	<path style="fill:#006DF0;" d="M184.878,376.398c-4.678,0-8.475-3.797-8.475-8.475c0-2.246,0.89-4.399,2.483-5.992l23.968-23.968
		c3.254-3.365,8.619-3.458,11.984-0.212c3.365,3.254,3.458,8.619,0.212,11.984c-0.068,0.068-0.136,0.144-0.212,0.212l-23.968,23.968
		C189.285,375.508,187.124,376.398,184.878,376.398z"/>
	<path style="fill:#006DF0;" d="M83.177,444.199c-4.678,0-8.475-3.797-8.475-8.475c0-2.246,0.89-4.399,2.483-5.992l23.968-23.968
		c3.254-3.365,8.619-3.458,11.984-0.212c3.365,3.254,3.458,8.619,0.212,11.984c-0.068,0.068-0.136,0.144-0.212,0.212l-23.968,23.968
		C87.584,443.309,85.423,444.199,83.177,444.199z"/>
	<path style="fill:#006DF0;" d="M150.978,444.199c-4.678,0-8.475-3.797-8.475-8.475c0-2.246,0.89-4.399,2.483-5.992l23.968-23.968
		c3.254-3.365,8.619-3.458,11.984-0.212c3.365,3.254,3.458,8.619,0.212,11.984c-0.068,0.068-0.136,0.144-0.212,0.212l-23.968,23.968
		C155.385,443.309,153.224,444.199,150.978,444.199z"/>
	<path style="fill:#006DF0;" d="M49.276,512c-4.678,0-8.475-3.797-8.475-8.475c0-2.246,0.89-4.399,2.483-5.992l23.968-23.968
		c3.254-3.365,8.619-3.458,11.984-0.212c3.365,3.254,3.458,8.619,0.212,11.984c-0.068,0.068-0.136,0.136-0.212,0.212l-23.968,23.968
		C53.683,511.11,51.522,512,49.276,512z"/>
	<path style="fill:#006DF0;" d="M117.077,512c-4.678,0-8.475-3.797-8.475-8.475c0-2.246,0.89-4.399,2.483-5.992l23.968-23.968
		c3.254-3.365,8.619-3.458,11.984-0.212c3.365,3.254,3.458,8.619,0.212,11.984c-0.068,0.068-0.136,0.144-0.212,0.212l-23.968,23.968
		C121.484,511.11,119.323,512,117.077,512z"/>
</g>
<path style="fill:#FF9811;" d="M298.564,389.84c0-4.678-3.797-8.475-8.475-8.475h-47.342l34.935-34.926
	c3.365-3.254,3.458-8.619,0.203-11.984c-3.254-3.365-8.619-3.458-11.984-0.203c-0.068,0.068-0.136,0.136-0.203,0.203l-47.952,47.935
	c-0.212,0.271-0.398,0.551-0.568,0.848c-2.093,1.551-3.339,3.992-3.365,6.602c0,4.678,3.797,8.475,8.475,8.475h47.342l-43.41,43.401
	c-3.365,3.254-3.458,8.619-0.212,11.984c3.254,3.365,8.619,3.458,11.984,0.212c0.068-0.068,0.144-0.136,0.212-0.212l56.427-56.411
	c0.212-0.271,0.398-0.551,0.568-0.848C297.301,394.891,298.547,392.45,298.564,389.84z"/>
<path style="fill:#006DF0;" d="M184.878,512c-4.678,0-8.475-3.797-8.475-8.475c0-2.246,0.89-4.399,2.483-5.992l23.968-23.968
	c3.254-3.365,8.619-3.458,11.984-0.212c3.365,3.254,3.458,8.619,0.212,11.984c-0.068,0.068-0.136,0.144-0.212,0.212l-23.968,23.968
	C189.285,511.11,187.124,512,184.878,512z"/>
<g>
</g>
<g>
</g>
<g>
</g>
<g>
</g>
<g>
</g>
<g>
</g>
<g>
</g>
<g>
</g>
<g>
</g>
<g>
</g>
<g>
</g>
<g>
</g>
<g>
</g>
<g>
</g>
<g>
</g>
</svg>
