<?xml version="1.0" encoding="iso-8859-1"?>
<!-- Generator: Adobe Illustrator 19.0.0, SVG Export Plug-In . SVG Version: 6.00 Build 0)  -->
<svg version="1.1" id="Capa_1" xmlns="http://www.w3.org/2000/svg" xmlns:xlink="http://www.w3.org/1999/xlink" x="0px" y="0px"
	 viewBox="0 0 511.997 511.997" style="enable-background:new 0 0 511.997 511.997;" xml:space="preserve">
<g>
	<path style="fill:#78B9EB;" d="M59.857,238.985h255.949c2.901,0,5.716-0.171,8.532-0.427c46.881-4.709,81.076-46.531,76.367-93.413
		c-4.377-43.605-41.08-76.802-84.898-76.793c-8.745-0.026-17.439,1.322-25.766,4.01c-2.5-37.616-35.014-66.077-72.621-63.586
		c-33.521,2.227-60.438,28.504-63.458,61.965c-10.033-7.149-22.063-10.963-34.382-10.92c-33.052,0.068-59.79,26.909-59.721,59.96
		c0.009,5.725,0.845,11.424,2.474,16.91c-0.819-0.077-1.647-0.102-2.474-0.085c-28.274,0-51.19,22.916-51.19,51.19
		S31.591,238.985,59.857,238.985z"/>
	<path style="fill:#78B9EB;" d="M111.047,452.276c0,28.274,22.916,51.19,51.19,51.19l0,0h255.949c2.901,0,5.716-0.171,8.532-0.427
		c46.881-4.709,81.076-46.531,76.367-93.413c-4.377-43.605-41.08-76.802-84.898-76.793c-8.745-0.026-17.439,1.322-25.766,4.01
		c-2.5-37.616-35.014-66.077-72.621-63.586c-33.521,2.227-60.438,28.504-63.458,61.965c-10.033-7.15-22.063-10.963-34.382-10.92
		c-33.052,0.068-59.79,26.909-59.721,59.96c0.009,5.725,0.845,11.424,2.474,16.91c-0.819-0.077-1.647-0.102-2.474-0.085
		C133.971,401.086,111.047,424.002,111.047,452.276z"/>
</g>
<g>
	<path style="fill:#231F20;" d="M315.806,247.517H59.857c-32.983,0.009-59.73-26.73-59.73-59.713
		c-0.009-29.92,22.131-55.234,51.787-59.201c-0.392-3.003-0.589-6.032-0.589-9.061c-0.009-37.693,30.543-68.262,68.236-68.27
		c9.692,0,19.273,2.056,28.103,6.049c10.758-41.02,52.734-65.548,93.754-54.79c28.368,7.44,50.021,30.39,55.797,59.133
		c50.823-10.17,100.272,22.797,110.433,73.619c10.17,50.823-22.788,100.264-73.619,110.433c-2.926,0.589-5.878,1.032-8.839,1.331
		C322.034,247.338,318.962,247.517,315.806,247.517z M60.522,145.137h-0.665c-23.556,0-42.658,19.102-42.658,42.658
		s19.102,42.658,42.658,42.658h255.949c2.645,0,5.196-0.162,7.764-0.392c42.189-4.283,72.92-41.959,68.637-84.147
		c-3.976-39.211-36.993-69.038-76.401-69.029c-7.841-0.026-15.647,1.186-23.112,3.583c-4.479,1.467-9.299-0.973-10.767-5.452
		c-0.222-0.683-0.358-1.382-0.401-2.099c-2.193-32.906-30.654-57.81-63.561-55.618c-29.315,1.954-52.853,24.946-55.507,54.21
		c-0.427,4.692-4.573,8.156-9.265,7.73c-1.502-0.137-2.943-0.665-4.172-1.544c-8.6-6.109-18.898-9.376-29.443-9.342
		c-28.257,0.026-51.164,22.933-51.19,51.19c-0.009,4.982,0.708,9.939,2.116,14.717c1.322,4.522-1.271,9.257-5.793,10.579
		c-1.066,0.316-2.193,0.41-3.302,0.299C61.119,145.12,60.821,145.12,60.522,145.137z"/>
	<path style="fill:#231F20;" d="M418.185,511.997H162.236c-32.983,0.009-59.73-26.73-59.73-59.713
		c-0.009-29.92,22.131-55.234,51.787-59.201c-0.392-3.003-0.589-6.032-0.589-9.061c-0.009-37.693,30.543-68.262,68.236-68.27
		c9.692,0,19.273,2.056,28.103,6.049c10.758-41.02,52.734-65.548,93.754-54.79c28.368,7.44,50.021,30.39,55.797,59.133
		c50.823-10.17,100.264,22.788,110.433,73.619c10.17,50.823-22.788,100.264-73.619,110.433c-2.926,0.589-5.878,1.032-8.839,1.331
		C424.413,511.818,421.342,511.997,418.185,511.997z M162.902,409.618h-0.665c-23.556,0-42.658,19.102-42.658,42.658
		c0,23.556,19.102,42.658,42.658,42.658h255.949c2.645,0,5.196-0.162,7.764-0.392c42.189-4.283,72.92-41.959,68.637-84.147
		c-3.976-39.211-36.993-69.038-76.401-69.029c-7.841-0.026-15.647,1.186-23.112,3.583c-4.479,1.467-9.299-0.973-10.767-5.452
		c-0.222-0.683-0.358-1.382-0.401-2.099c-2.193-32.906-30.654-57.81-63.561-55.618c-29.315,1.954-52.853,24.946-55.507,54.21
		c-0.427,4.692-4.573,8.156-9.265,7.73c-1.502-0.137-2.943-0.665-4.172-1.544c-8.6-6.109-18.898-9.376-29.443-9.342
		c-28.257,0.026-51.164,22.933-51.19,51.19c-0.009,4.982,0.708,9.939,2.116,14.717c1.322,4.522-1.271,9.257-5.793,10.579
		c-1.066,0.316-2.193,0.41-3.302,0.299C163.499,409.601,163.2,409.601,162.902,409.618z"/>
</g>
<g>
</g>
<g>
</g>
<g>
</g>
<g>
</g>
<g>
</g>
<g>
</g>
<g>
</g>
<g>
</g>
<g>
</g>
<g>
</g>
<g>
</g>
<g>
</g>
<g>
</g>
<g>
</g>
<g>
</g>
</svg>
