<?xml version="1.0" encoding="iso-8859-1"?>
<!-- Generator: Adobe Illustrator 19.0.0, SVG Export Plug-In . SVG Version: 6.00 Build 0)  -->
<svg version="1.1" id="Capa_1" xmlns="http://www.w3.org/2000/svg" xmlns:xlink="http://www.w3.org/1999/xlink" x="0px" y="0px"
	 viewBox="0 0 511.999 511.999" style="enable-background:new 0 0 511.999 511.999;" xml:space="preserve">
<path style="fill:#78B9EB;" d="M400.887,164.68c-11.685-0.034-23.284,1.962-34.286,5.885c0.085-1.962,0.171-3.923,0.171-5.885
	c0-56.521-45.826-102.347-102.347-102.347S162.077,108.159,162.077,164.68c-0.017,4.452,0.264,8.896,0.853,13.305
	c-8.444-3.207-17.408-4.819-26.44-4.776c-36.478,0.085-67.89,25.757-75.225,61.494c-36.691,8.58-59.489,45.28-50.909,81.972
	c7.215,30.866,34.738,52.7,66.432,52.7h324.099c2.9,0,5.714-0.085,8.529-0.341c56.334-4.614,98.27-54.014,93.656-110.356
	C498.723,205.5,454.244,164.586,400.887,164.68z"/>
<path style="fill:#FF9811;" d="M162.93,177.985c-0.589-4.409-0.87-8.853-0.853-13.305c-0.085-26.789,10.397-52.53,29.169-71.643
	C146.939,76.96,97.983,99.852,81.905,144.16c-3.377,9.314-5.109,19.139-5.117,29.05c0.009,8.29,1.211,16.538,3.582,24.478
	c14.474-15.625,34.815-24.504,56.12-24.478C145.523,173.167,154.487,174.787,162.93,177.985z"/>
<path style="fill:#231F20;" d="M400.887,156.151c-8.665-0.017-17.297,0.989-25.723,2.985
	c-3.011-61.11-54.994-108.215-116.113-105.196c-26.064,1.288-50.841,11.727-69.954,29.493
	C139.629,68.397,87.338,96.312,72.302,145.78c-4.921,16.196-5.365,33.416-1.271,49.835c-7.889,9.382-13.646,20.367-16.879,32.188
	C13.64,240.298-9.064,283.275,3.431,323.779c9.928,32.18,39.677,54.133,73.357,54.133h324.099c3.164,0,6.235-0.094,9.237-0.367
	c61.033-4.972,106.475-58.483,101.503-119.516C506.928,200.382,458.722,156.032,400.887,156.151z M162.077,96.449
	c4.657,0,9.305,0.418,13.885,1.245c-1.023,1.348-1.928,2.755-2.883,4.137c-0.597,0.853-1.237,1.706-1.808,2.559
	c-1.791,2.763-3.471,5.586-5.006,8.486c-0.196,0.375-0.35,0.768-0.546,1.143c-1.313,2.559-2.525,5.16-3.633,7.813
	c-0.426,1.023-0.785,2.064-1.186,3.105c-0.785,2.064-1.535,4.137-2.192,6.243c-0.375,1.186-0.708,2.371-1.032,3.565
	c-0.571,2.047-1.083,4.119-1.535,6.209c-0.256,1.203-0.52,2.405-0.733,3.616c-0.409,2.243-0.716,4.503-0.989,6.772
	c-0.128,1.066-0.29,2.124-0.384,3.198c-0.299,3.377-0.486,6.729-0.486,10.141c0,0.571,0,1.143,0,1.706
	c-5.612-1.143-11.326-1.714-17.058-1.706c-2.678,0-5.339,0.162-7.992,0.418c-0.853,0.077-1.62,0.196-2.431,0.299
	c-1.876,0.23-3.744,0.52-5.586,0.853c-0.853,0.162-1.706,0.333-2.559,0.529c-1.962,0.435-3.906,0.964-5.834,1.544
	c-0.623,0.179-1.245,0.333-1.859,0.529c-2.473,0.81-4.913,1.706-7.301,2.755c-0.648,0.273-1.262,0.597-1.902,0.896
	c-1.757,0.802-3.488,1.655-5.194,2.559c-0.853,0.444-1.638,0.921-2.448,1.39c-1.535,0.904-3.045,1.868-4.52,2.866
	c-0.742,0.495-1.484,0.981-2.209,1.501c-0.281,0.205-0.58,0.384-0.853,0.589c-0.307-2.721-0.469-5.459-0.486-8.196
	C85.368,130.838,119.706,96.5,162.077,96.449z M408.64,360.539c-2.559,0.23-5.117,0.307-7.753,0.307H76.788
	c-32.973-0.026-59.685-26.772-59.66-59.745c0.017-27.702,19.096-51.754,46.065-58.082c3.25-0.751,5.757-3.326,6.431-6.593
	c6.516-31.77,34.44-54.602,66.867-54.687c7.983-0.051,15.906,1.373,23.378,4.205c4.392,1.689,9.331-0.503,11.019-4.896
	c0.52-1.348,0.682-2.797,0.495-4.222c-0.537-4.026-0.793-8.085-0.776-12.145c-0.017-6.124,0.554-12.239,1.706-18.252
	c8.674-43.975,47.284-75.652,92.112-75.566c51.788,0.06,93.759,42.031,93.818,93.818c0,1.842-0.077,3.676-0.162,5.51
	c-0.205,4.708,3.437,8.691,8.145,8.896c1.109,0.051,2.217-0.119,3.267-0.495c10.073-3.599,20.7-5.424,31.395-5.382
	c51.813-0.094,93.895,41.834,93.989,93.648C494.97,315.796,457.417,356.59,408.64,360.539z"/>
<g>
	<path style="fill:#FF5023;" d="M162.077,62.333c-4.708,0-8.529-3.821-8.529-8.529V19.689c0-4.708,3.821-8.529,8.529-8.529
		c4.708,0,8.529,3.821,8.529,8.529v34.116C170.606,58.521,166.785,62.333,162.077,62.333z"/>
	<path style="fill:#FF5023;" d="M115.083,73.421c-3.454,0.009-6.567-2.073-7.889-5.262L94.145,36.601
		c-1.672-4.401,0.537-9.331,4.938-11.002c4.222-1.603,8.964,0.358,10.815,4.478l13.058,31.557c1.8,4.35-0.273,9.339-4.623,11.139
		C117.301,73.199,116.2,73.421,115.083,73.421z"/>
	<path style="fill:#FF5023;" d="M75.884,101.566c-2.26,0-4.435-0.896-6.03-2.499l-24.128-24.12c-3.386-3.267-3.48-8.665-0.205-12.06
		c3.267-3.386,8.665-3.48,12.06-0.205c0.068,0.068,0.145,0.136,0.213,0.213l24.12,24.128c3.326,3.335,3.326,8.734,0,12.06
		C80.302,100.679,78.136,101.575,75.884,101.566L75.884,101.566z"/>
	<path style="fill:#FF5023;" d="M50.451,142.616c-1.117,0-2.226-0.222-3.258-0.648L15.636,128.91
		c-4.35-1.817-6.414-6.815-4.597-11.164s6.815-6.414,11.164-4.597l31.557,13.058c4.35,1.8,6.422,6.789,4.623,11.139
		c-1.322,3.19-4.435,5.271-7.889,5.271H50.451z"/>
	<path style="fill:#FF5023;" d="M42.672,190.267H8.557c-4.708,0-8.529-3.821-8.529-8.529s3.821-8.529,8.529-8.529h34.116
		c4.708,0,8.529,3.821,8.529,8.529S47.38,190.267,42.672,190.267z"/>
</g>
<g>
	<path style="fill:#006DF0;" d="M226.778,441.137c-4.708,0-8.529-3.821-8.529-8.529c0-2.26,0.896-4.427,2.499-6.03l24.12-24.12
		c3.386-3.275,8.785-3.181,12.06,0.205c3.19,3.309,3.19,8.546,0,11.855l-24.12,24.12
		C231.213,440.241,229.038,441.137,226.778,441.137z"/>
	<path style="fill:#006DF0;" d="M175.604,441.137c-4.708,0-8.529-3.821-8.529-8.529c0-2.26,0.896-4.427,2.499-6.03l24.12-24.12
		c3.275-3.386,8.674-3.48,12.06-0.213c3.386,3.275,3.48,8.674,0.213,12.06c-0.068,0.068-0.136,0.145-0.213,0.213l-24.12,24.12
		C180.039,440.241,177.864,441.137,175.604,441.137z"/>
	<path style="fill:#006DF0;" d="M124.431,441.137c-4.708,0-8.529-3.821-8.529-8.529c0-2.26,0.896-4.427,2.499-6.03l24.12-24.12
		c3.275-3.386,8.674-3.48,12.06-0.213c3.386,3.275,3.48,8.674,0.213,12.06c-0.068,0.068-0.136,0.145-0.213,0.213l-24.12,24.12
		C128.866,440.241,126.691,441.137,124.431,441.137z"/>
	<path style="fill:#006DF0;" d="M277.951,441.137c-4.708,0-8.529-3.821-8.529-8.529c0-2.26,0.896-4.427,2.499-6.03l24.12-24.12
		c3.386-3.275,8.785-3.181,12.06,0.205c3.19,3.309,3.19,8.546,0,11.855l-24.12,24.12
		C282.386,440.241,280.212,441.137,277.951,441.137z"/>
	<path style="fill:#006DF0;" d="M329.125,441.137c-4.708,0-8.529-3.821-8.529-8.529c0-2.26,0.896-4.427,2.499-6.03l24.12-24.12
		c3.386-3.275,8.785-3.181,12.06,0.205c3.19,3.309,3.19,8.546,0,11.855l-24.12,24.12
		C333.56,440.241,331.385,441.137,329.125,441.137z"/>
	<path style="fill:#006DF0;" d="M167.075,500.839c-4.708,0-8.529-3.821-8.529-8.529c0-2.26,0.896-4.427,2.499-6.03l24.12-24.12
		c3.275-3.386,8.674-3.48,12.06-0.213c3.386,3.275,3.48,8.674,0.213,12.06c-0.068,0.068-0.136,0.145-0.213,0.213l-24.12,24.12
		C171.51,499.944,169.336,500.839,167.075,500.839z"/>
	<path style="fill:#006DF0;" d="M115.902,500.839c-4.708,0-8.529-3.821-8.529-8.529c0-2.26,0.896-4.427,2.499-6.03l24.12-24.12
		c3.275-3.386,8.674-3.48,12.06-0.213c3.386,3.275,3.48,8.674,0.213,12.06c-0.068,0.068-0.136,0.145-0.213,0.213l-24.12,24.12
		C120.337,499.944,118.162,500.839,115.902,500.839z"/>
	<path style="fill:#006DF0;" d="M64.728,500.839c-4.708,0-8.529-3.821-8.529-8.529c0-2.26,0.896-4.427,2.499-6.03l24.12-24.12
		c3.275-3.386,8.674-3.48,12.06-0.213c3.386,3.275,3.48,8.674,0.213,12.06c-0.068,0.068-0.136,0.145-0.213,0.213l-24.12,24.12
		C69.163,499.944,66.988,500.839,64.728,500.839z"/>
	<path style="fill:#006DF0;" d="M218.249,500.839c-4.708,0-8.529-3.821-8.529-8.529c0-2.26,0.896-4.427,2.499-6.03l24.12-24.12
		c3.275-3.386,8.674-3.48,12.06-0.213c3.386,3.275,3.48,8.674,0.213,12.06c-0.068,0.068-0.136,0.145-0.213,0.213l-24.12,24.12
		C222.684,499.944,220.509,500.839,218.249,500.839z"/>
	<path style="fill:#006DF0;" d="M269.422,500.839c-4.708,0-8.529-3.821-8.529-8.529c0-2.26,0.896-4.427,2.499-6.03l24.12-24.12
		c3.386-3.275,8.785-3.181,12.06,0.205c3.19,3.309,3.19,8.546,0,11.855l-24.12,24.12
		C273.858,499.944,271.683,500.839,269.422,500.839z"/>
</g>
<g>
</g>
<g>
</g>
<g>
</g>
<g>
</g>
<g>
</g>
<g>
</g>
<g>
</g>
<g>
</g>
<g>
</g>
<g>
</g>
<g>
</g>
<g>
</g>
<g>
</g>
<g>
</g>
<g>
</g>
</svg>
