<?xml version="1.0" encoding="iso-8859-1"?>
<!-- Generator: Adobe Illustrator 19.0.0, SVG Export Plug-In . SVG Version: 6.00 Build 0)  -->
<svg version="1.1" id="Capa_1" xmlns="http://www.w3.org/2000/svg" xmlns:xlink="http://www.w3.org/1999/xlink" x="0px" y="0px"
	 viewBox="0 0 511.997 511.997" style="enable-background:new 0 0 511.997 511.997;" xml:space="preserve">
<path style="fill:#78B9EB;" d="M401.361,113.318c-11.699-0.034-23.313,1.964-34.329,5.892c0.085-1.964,0.171-3.928,0.171-5.892
	c0-47.813-33.057-89.273-79.674-99.913c-1.793-0.427-3.672-0.769-5.551-1.025c-2.647-0.512-5.295-0.854-8.027-1.11
	c-3.074-0.256-6.148-0.427-9.223-0.427c-27.566-0.034-53.979,11.05-73.27,30.743c-6.49,6.55-12.015,13.996-16.396,22.118
	c-0.111,0.248-0.256,0.478-0.427,0.683v0.085c-3.493,6.336-6.268,13.031-8.283,19.983c-1.699,5.892-2.869,11.921-3.501,18.019
	c-0.418,3.604-0.615,7.224-0.598,10.845c-0.017,4.458,0.265,8.907,0.854,13.322c-8.454-3.211-17.429-4.825-26.473-4.782
	c-11.469,0.009-22.784,2.57-33.134,7.515c-3.339,1.631-6.558,3.484-9.65,5.551c-1.827,1.187-3.57,2.494-5.209,3.928
	c-2.912,2.297-5.653,4.816-8.198,7.515c-2.459,2.587-4.714,5.354-6.746,8.283c-6.08,8.634-10.29,18.428-12.382,28.778
	c-4.936,1.144-9.727,2.861-14.261,5.124c-5.559,2.707-10.734,6.157-15.371,10.248c-3.313,2.869-6.319,6.072-8.967,9.564
	c-22.997,29.863-17.438,72.723,12.434,95.729c11.955,9.206,26.618,14.193,41.707,14.176h324.505c2.903,0,5.722-0.085,8.54-0.342
	c56.404-4.62,98.393-54.081,93.773-110.494C499.319,154.188,454.785,113.224,401.361,113.318z"/>
<path style="fill:#231F20;" d="M401.361,326.808H76.857C34.432,326.756,0.051,292.376,0,249.951
	c-0.043-16.943,5.568-33.415,15.952-46.797c2.989-3.937,6.379-7.549,10.111-10.786c5.192-4.586,10.99-8.446,17.216-11.477
	c3.501-1.768,7.148-3.236,10.897-4.381c2.579-9.599,6.823-18.676,12.545-26.806c2.28-3.288,4.816-6.396,7.583-9.291
	c2.801-2.98,5.824-5.739,9.035-8.266c1.819-1.588,3.749-3.04,5.781-4.347c3.407-2.28,6.96-4.321,10.64-6.123
	c16.797-7.967,35.721-10.307,53.953-6.652c0-0.564,0-1.136,0-1.708c-0.026-3.979,0.196-7.95,0.666-11.896
	c0.675-6.558,1.947-13.049,3.783-19.385c2.126-7.318,5.03-14.389,8.659-21.084c0.196-0.436,0.418-0.845,0.675-1.247l0.068-0.102
	v0.06l0,0c4.757-8.83,10.76-16.925,17.814-24.056c23.356-23.732,56.105-35.781,89.273-32.852c3.117,0.29,6.029,0.675,8.95,1.238
	c1.708,0.222,3.834,0.615,5.892,1.102c48.317,11.315,83.381,53.125,86.105,102.672c59.692-14.005,119.435,23.023,133.44,82.715
	c14.005,59.692-23.023,119.435-82.715,133.44c-5.166,1.213-10.418,2.058-15.713,2.519
	C407.604,326.714,404.529,326.808,401.361,326.808z M136.634,130.397c-10.196,0-20.273,2.289-29.47,6.687
	c-2.955,1.452-5.807,3.108-8.54,4.944c-1.494,0.965-2.921,2.024-4.27,3.185c-2.733,2.135-5.303,4.475-7.686,6.994
	c-2.178,2.297-4.176,4.765-5.978,7.37c-5.38,7.669-9.12,16.37-10.99,25.55c-0.658,3.245-3.143,5.824-6.362,6.601
	c-4.287,0.982-8.446,2.468-12.382,4.432c-4.91,2.383-9.479,5.414-13.578,9.018c-2.886,2.502-5.508,5.286-7.822,8.326
	c-8.104,10.418-12.493,23.245-12.476,36.447c0.034,32.997,26.78,59.743,59.777,59.777h324.505c2.639,0,5.192-0.068,7.754-0.307
	c51.707-4.193,90.229-49.513,86.036-101.22c-3.962-48.838-44.79-86.429-93.79-86.344c-10.709-0.034-21.349,1.785-31.434,5.388
	c-4.441,1.597-9.334-0.7-10.931-5.141c-0.376-1.042-0.547-2.152-0.495-3.262c0.077-1.836,0.162-3.681,0.162-5.525
	c-0.214-43.748-30.418-81.63-73.022-91.587c-1.588-0.367-3.194-0.649-4.808-0.854c-2.852-0.538-5.235-0.854-7.686-1.076
	c-2.741-0.256-5.576-0.418-8.42-0.418c-25.286-0.085-49.521,10.085-67.172,28.181c-5.926,5.969-10.973,12.767-14.97,20.171l0,0
	c-0.094,0.188-0.196,0.367-0.299,0.547c-0.102,0.179-0.111,0.222-0.171,0.333c-3.194,5.781-5.73,11.896-7.566,18.232
	c-1.554,5.414-2.63,10.956-3.211,16.558c-0.384,3.288-0.564,6.601-0.547,9.914c-0.026,4.073,0.239,8.138,0.777,12.169
	c0.64,4.671-2.63,8.975-7.31,9.616c-1.426,0.196-2.886,0.026-4.227-0.495C152.56,131.772,144.627,130.346,136.634,130.397z"/>
<g>
	<path style="fill:#006DF0;" d="M269.732,390.12c-4.714,0-8.54-3.826-8.54-8.54c0-2.263,0.897-4.432,2.502-6.038l24.15-24.15
		c3.39-3.279,8.796-3.185,12.075,0.205c3.194,3.313,3.194,8.557,0,11.87l-24.15,24.15
		C274.172,389.215,271.995,390.12,269.732,390.12z"/>
	<path style="fill:#006DF0;" d="M218.494,390.12c-4.714,0-8.54-3.826-8.54-8.54c0-2.263,0.897-4.432,2.502-6.038l24.15-24.15
		c3.279-3.39,8.685-3.484,12.075-0.214c3.39,3.279,3.484,8.685,0.213,12.075c-0.068,0.068-0.137,0.145-0.213,0.214l-24.15,24.15
		C222.935,389.215,220.757,390.12,218.494,390.12z"/>
	<path style="fill:#006DF0;" d="M167.257,390.12c-4.714,0-8.54-3.826-8.54-8.54c0-2.263,0.897-4.432,2.502-6.038l24.15-24.15
		c3.279-3.39,8.685-3.484,12.075-0.214c3.39,3.279,3.484,8.685,0.213,12.075c-0.068,0.068-0.137,0.145-0.213,0.214l-24.15,24.15
		C171.697,389.215,169.52,390.12,167.257,390.12z"/>
	<path style="fill:#006DF0;" d="M320.969,390.12c-4.714,0-8.54-3.826-8.54-8.54c0-2.263,0.897-4.432,2.502-6.038l24.15-24.15
		c3.39-3.279,8.796-3.185,12.075,0.205c3.194,3.313,3.194,8.557,0,11.87l-24.15,24.15C325.41,389.215,323.232,390.12,320.969,390.12
		z"/>
	<path style="fill:#006DF0;" d="M372.207,390.12c-4.714,0-8.54-3.826-8.54-8.54c0-2.263,0.897-4.432,2.502-6.038l24.15-24.15
		c3.39-3.279,8.796-3.185,12.075,0.205c3.194,3.313,3.194,8.557,0,11.87l-24.15,24.15C376.648,389.215,374.47,390.12,372.207,390.12
		z"/>
	<path style="fill:#006DF0;" d="M209.955,449.897c-4.714,0-8.54-3.826-8.54-8.54c0-2.263,0.897-4.432,2.502-6.038l24.15-24.15
		c3.279-3.39,8.685-3.484,12.075-0.214c3.39,3.279,3.484,8.685,0.213,12.075c-0.068,0.068-0.137,0.145-0.213,0.214l-24.15,24.15
		C214.395,448.992,212.218,449.897,209.955,449.897z"/>
	<path style="fill:#006DF0;" d="M158.717,449.897c-4.714,0-8.54-3.826-8.54-8.54c0-2.263,0.897-4.432,2.502-6.038l24.15-24.15
		c3.279-3.39,8.685-3.484,12.075-0.214c3.39,3.279,3.484,8.685,0.213,12.075c-0.068,0.068-0.137,0.145-0.213,0.214l-24.15,24.15
		C163.158,448.992,160.98,449.897,158.717,449.897z"/>
	<path style="fill:#006DF0;" d="M107.48,449.897c-4.714,0-8.54-3.826-8.54-8.54c0-2.263,0.897-4.432,2.502-6.038l24.15-24.15
		c3.279-3.39,8.685-3.484,12.075-0.214c3.39,3.279,3.484,8.685,0.213,12.075c-0.068,0.068-0.137,0.145-0.213,0.214l-24.15,24.15
		C111.92,448.992,109.743,449.897,107.48,449.897z"/>
	<path style="fill:#006DF0;" d="M261.192,449.897c-4.714,0-8.54-3.826-8.54-8.54c0-2.263,0.897-4.432,2.502-6.038l24.15-24.15
		c3.39-3.279,8.796-3.185,12.075,0.205c3.194,3.313,3.194,8.557,0,11.87l-24.15,24.15
		C265.633,448.992,263.455,449.897,261.192,449.897z"/>
	<path style="fill:#006DF0;" d="M312.43,449.897c-4.714,0-8.54-3.826-8.54-8.54c0-2.263,0.897-4.432,2.502-6.038l24.15-24.15
		c3.39-3.279,8.796-3.185,12.075,0.205c3.194,3.313,3.194,8.557,0,11.87l-24.15,24.15
		C316.87,448.992,314.693,449.897,312.43,449.897z"/>
	<path style="fill:#006DF0;" d="M150.178,509.674c-4.714,0-8.54-3.826-8.54-8.54c0-2.263,0.897-4.432,2.502-6.038l24.15-24.15
		c3.279-3.39,8.685-3.484,12.075-0.214c3.39,3.279,3.484,8.685,0.214,12.075c-0.068,0.068-0.137,0.145-0.214,0.214l-24.15,24.15
		C154.618,508.769,152.441,509.674,150.178,509.674z"/>
	<path style="fill:#006DF0;" d="M98.94,509.674c-4.714,0-8.54-3.826-8.54-8.54c0-2.263,0.897-4.432,2.502-6.038l24.15-24.15
		c3.279-3.39,8.685-3.484,12.075-0.214c3.39,3.279,3.484,8.685,0.213,12.075c-0.068,0.068-0.137,0.145-0.213,0.214l-24.15,24.15
		C103.381,508.769,101.203,509.674,98.94,509.674z"/>
	<path style="fill:#006DF0;" d="M47.702,509.674c-4.714,0-8.54-3.826-8.54-8.54c0-2.263,0.897-4.432,2.502-6.038l24.15-24.15
		c3.279-3.39,8.685-3.484,12.075-0.214c3.39,3.279,3.484,8.685,0.213,12.075c-0.068,0.068-0.137,0.137-0.213,0.214l-24.15,24.15
		C52.143,508.769,49.965,509.674,47.702,509.674z"/>
	<path style="fill:#006DF0;" d="M201.415,509.674c-4.714,0-8.54-3.826-8.54-8.54c0-2.263,0.897-4.432,2.502-6.038l24.15-24.15
		c3.279-3.39,8.685-3.484,12.075-0.214c3.39,3.279,3.484,8.685,0.213,12.075c-0.068,0.068-0.137,0.145-0.213,0.214l-24.15,24.15
		C205.856,508.769,203.678,509.674,201.415,509.674z"/>
	<path style="fill:#006DF0;" d="M252.653,509.674c-4.714,0-8.54-3.826-8.54-8.54c0-2.263,0.897-4.432,2.502-6.038l24.15-24.15
		c3.39-3.279,8.796-3.185,12.075,0.205c3.194,3.313,3.194,8.557,0,11.87l-24.15,24.15
		C257.093,508.769,254.916,509.674,252.653,509.674z"/>
</g>
<g>
</g>
<g>
</g>
<g>
</g>
<g>
</g>
<g>
</g>
<g>
</g>
<g>
</g>
<g>
</g>
<g>
</g>
<g>
</g>
<g>
</g>
<g>
</g>
<g>
</g>
<g>
</g>
<g>
</g>
</svg>
