<?xml version="1.0" encoding="iso-8859-1"?>
<!-- Generator: Adobe Illustrator 19.0.0, SVG Export Plug-In . SVG Version: 6.00 Build 0)  -->
<svg version="1.1" id="Capa_1" xmlns="http://www.w3.org/2000/svg" xmlns:xlink="http://www.w3.org/1999/xlink" x="0px" y="0px"
	 viewBox="0 0 511.999 511.999" style="enable-background:new 0 0 511.999 511.999;" xml:space="preserve">
<path style="fill:#78B9EB;" d="M400.887,226.148c-11.685-0.034-23.284,1.962-34.286,5.885c0.085-1.962,0.171-3.923,0.171-5.885
	c0-56.521-45.826-102.347-102.347-102.347s-102.347,45.826-102.347,102.347c-0.017,4.452,0.264,8.896,0.853,13.305
	c-8.444-3.207-17.408-4.819-26.44-4.776c-36.478,0.085-67.89,25.757-75.225,61.494c-36.691,8.58-59.489,45.28-50.909,81.972
	c7.215,30.866,34.738,52.7,66.432,52.7h324.099c2.9,0,5.714-0.085,8.529-0.341c56.334-4.614,98.27-54.014,93.656-110.356
	C498.723,266.968,454.244,226.054,400.887,226.148z"/>
<path style="fill:#FF9811;" d="M162.93,239.453c-0.589-4.409-0.87-8.853-0.853-13.305c-0.085-26.789,10.397-52.53,29.169-71.643
	c-44.308-16.077-93.264,6.815-109.341,51.122c-3.377,9.314-5.109,19.139-5.117,29.05c0.009,8.29,1.211,16.538,3.582,24.478
	c14.474-15.625,34.815-24.504,56.12-24.478C145.523,234.635,154.487,236.255,162.93,239.453z"/>
<path style="fill:#231F20;" d="M400.887,217.619c-8.665-0.017-17.297,0.989-25.723,2.985
	c-3.011-61.11-54.994-108.215-116.113-105.204c-26.064,1.288-50.841,11.727-69.954,29.493
	c-49.468-15.037-101.759,12.879-116.795,62.346c-4.921,16.196-5.365,33.416-1.271,49.835c-7.889,9.382-13.646,20.367-16.879,32.188
	C13.64,301.757-9.064,344.734,3.431,385.238c9.928,32.18,39.677,54.133,73.357,54.133h324.099c3.164,0,6.235-0.094,9.237-0.367
	c61.033-4.972,106.475-58.483,101.503-119.516C506.928,261.85,458.722,217.5,400.887,217.619z M162.077,157.917
	c4.657,0,9.305,0.418,13.885,1.245c-1.058,1.39-2.004,2.849-2.985,4.264c-0.554,0.853-1.151,1.586-1.706,2.405
	c-1.808,2.78-3.497,5.621-5.041,8.529c-0.162,0.316-0.299,0.648-0.461,0.972c-1.348,2.61-2.584,5.271-3.71,7.975
	c-0.426,1.006-0.785,2.047-1.177,3.07c-0.785,2.073-1.535,4.154-2.2,6.277c-0.375,1.177-0.708,2.363-1.032,3.548
	c-0.571,2.055-1.075,4.128-1.527,6.218c-0.264,1.203-0.529,2.405-0.742,3.616c-0.409,2.235-0.716,4.495-0.989,6.763
	c-0.119,1.075-0.29,2.132-0.384,3.215c-0.273,3.369-0.461,6.721-0.461,10.132c0,0.571,0,1.143,0,1.706
	c-5.612-1.143-11.326-1.714-17.058-1.706c-2.678,0-5.339,0.162-7.992,0.418c-0.853,0.077-1.62,0.196-2.439,0.299
	c-1.876,0.23-3.736,0.52-5.586,0.853c-0.853,0.162-1.706,0.333-2.559,0.52c-1.979,0.443-3.923,0.972-5.859,1.552
	c-0.614,0.179-1.237,0.333-1.842,0.529c-2.482,0.81-4.921,1.706-7.309,2.755c-0.64,0.273-1.245,0.597-1.876,0.853
	c-1.765,0.853-3.514,1.706-5.22,2.559c-0.853,0.452-1.629,0.913-2.431,1.39c-1.552,0.904-3.062,1.868-4.546,2.874
	c-0.733,0.495-1.476,0.972-2.183,1.484c-0.29,0.205-0.588,0.384-0.853,0.589c-0.299-2.704-0.461-5.424-0.478-8.145
	C85.368,192.305,119.706,157.968,162.077,157.917z M408.64,422.007c-2.559,0.239-5.117,0.307-7.753,0.307H76.788
	c-32.973,0-59.702-26.73-59.702-59.702c0-27.736,19.096-51.813,46.107-58.133c3.25-0.751,5.757-3.318,6.431-6.584
	c6.516-31.77,34.431-54.611,66.867-54.687c7.983-0.051,15.906,1.373,23.369,4.205c4.392,1.697,9.331-0.486,11.028-4.887
	c0.52-1.348,0.691-2.806,0.495-4.23c-0.537-4.026-0.793-8.085-0.776-12.145c0-51.813,42.005-93.818,93.818-93.818
	s93.818,42.005,93.818,93.818c0,1.834-0.077,3.667-0.162,5.51c-0.205,4.708,3.437,8.691,8.145,8.896
	c1.109,0.051,2.217-0.119,3.258-0.495c10.081-3.599,20.7-5.416,31.404-5.382c51.813-0.094,93.895,41.834,93.989,93.648
	C494.97,377.264,457.417,418.058,408.64,422.007z"/>
<g>
	<path style="fill:#FF5023;" d="M162.077,123.801c-4.708,0-8.529-3.821-8.529-8.529V81.157c0-4.708,3.821-8.529,8.529-8.529
		c4.708,0,8.529,3.821,8.529,8.529v34.116C170.606,119.989,166.785,123.801,162.077,123.801z"/>
	<path style="fill:#FF5023;" d="M115.083,134.889c-3.454,0.009-6.567-2.073-7.889-5.262L94.145,98.069
		c-1.672-4.401,0.537-9.331,4.938-11.002c4.222-1.603,8.964,0.358,10.815,4.478l13.058,31.557c1.8,4.35-0.273,9.339-4.623,11.139
		C117.301,134.667,116.2,134.889,115.083,134.889z"/>
	<path style="fill:#FF5023;" d="M75.884,163.034c-2.26,0-4.435-0.896-6.03-2.499l-24.128-24.12c-3.386-3.275-3.48-8.674-0.213-12.06
		c3.275-3.386,8.674-3.48,12.06-0.213c0.068,0.068,0.145,0.136,0.213,0.213l24.12,24.128c3.326,3.335,3.326,8.734,0,12.06
		C80.302,162.147,78.136,163.043,75.884,163.034L75.884,163.034z"/>
	<path style="fill:#FF5023;" d="M50.451,204.092c-1.117,0-2.226-0.23-3.258-0.657l-31.557-13.058
		c-4.35-1.817-6.414-6.815-4.597-11.164c1.817-4.35,6.815-6.414,11.164-4.597l31.557,13.058c4.358,1.791,6.439,6.772,4.648,11.13
		c-1.322,3.207-4.444,5.296-7.915,5.288L50.451,204.092L50.451,204.092z"/>
	<path style="fill:#FF5023;" d="M42.672,251.735H8.557c-4.708,0-8.529-3.821-8.529-8.529c0-4.708,3.821-8.529,8.529-8.529h34.116
		c4.708,0,8.529,3.821,8.529,8.529C51.201,247.914,47.38,251.735,42.672,251.735z"/>
</g>
<g>
</g>
<g>
</g>
<g>
</g>
<g>
</g>
<g>
</g>
<g>
</g>
<g>
</g>
<g>
</g>
<g>
</g>
<g>
</g>
<g>
</g>
<g>
</g>
<g>
</g>
<g>
</g>
<g>
</g>
</svg>
