<?xml version="1.0" encoding="iso-8859-1"?>
<!-- Generator: Adobe Illustrator 19.0.0, SVG Export Plug-In . SVG Version: 6.00 Build 0)  -->
<svg version="1.1" id="Capa_1" xmlns="http://www.w3.org/2000/svg" xmlns:xlink="http://www.w3.org/1999/xlink" x="0px" y="0px"
	 viewBox="0 0 512 512" style="enable-background:new 0 0 512 512;" xml:space="preserve">
<path style="fill:#FF9811;" d="M251.044,346.417c4.251-1.853,8.845-2.817,13.489-2.817c2.886,0.009,5.763,0.41,8.537,1.195
	c1.707,0.359,3.364,0.905,4.952,1.622c-11.021-20.754-3.133-46.519,17.621-57.549c5.225-2.775,10.97-4.431,16.869-4.858
	c1.076-0.145,2.16-0.205,3.244-0.171c5.976-0.017,11.884,1.229,17.33,3.671c0.077-1.264,0.256-2.518,0.512-3.756
	c2.467-14.829,11.372-27.806,24.331-35.429c-5.071-52.495-49.191-92.552-101.934-92.543c-7.999-0.026-15.965,0.922-23.733,2.817
	c-46.152,10.962-78.73,52.196-78.713,99.629c0,2.903,0.085,5.72,0.342,8.537c3.825,45.606,37.401,83.161,82.298,92.031
	C239.835,353.315,245,349.013,251.044,346.417z"/>
<g>
	<path style="fill:#78B9EB;" d="M232.263,158.599c-0.487-0.854-1.033-1.682-1.622-2.476c-2.783-3.816-6.189-7.129-10.074-9.818
		c-6.224-4.345-13.514-6.907-21.087-7.427c-1.076-0.145-2.16-0.205-3.244-0.171c-5.976-0.017-11.884,1.229-17.33,3.671
		c-0.077-1.264-0.256-2.518-0.512-3.756c-1.161-6.838-3.688-13.369-7.427-19.209c-6.377-9.869-15.965-17.228-27.148-20.831
		c-5.114-1.725-10.484-2.595-15.879-2.561c-28.292,0-51.223,22.931-51.223,51.223c-0.026,7.658,1.699,15.222,5.037,22.111
		c-6.89-3.338-14.453-5.063-22.111-5.037c-28.292,0-51.223,22.931-51.223,51.223s22.931,51.223,51.223,51.223h94.25
		c-0.256-2.817-0.341-5.635-0.341-8.537C153.541,210.787,186.111,169.561,232.263,158.599z"/>
	<path style="fill:#78B9EB;" d="M452.351,309.451c-7.658-0.026-15.222,1.699-22.111,5.037c3.338-6.889,5.063-14.453,5.037-22.111
		c0-28.292-22.931-51.223-51.223-51.223c-5.396-0.034-10.765,0.837-15.879,2.561c-3.586,1.135-7.018,2.681-10.245,4.61
		c-12.959,7.624-21.864,20.6-24.331,35.429c-0.256,1.238-0.435,2.493-0.512,3.756c-5.447-2.442-11.354-3.688-17.33-3.671
		c-1.084-0.034-2.168,0.026-3.244,0.171c-7.572,0.521-14.863,3.082-21.087,7.427c-17.74,12.294-23.503,35.899-13.403,54.979
		c-1.588-0.717-3.244-1.263-4.952-1.622c-2.775-0.785-5.652-1.187-8.537-1.195c-11.389,0.034-22.009,5.737-28.343,15.196
		c-3.116,4.516-5.054,9.741-5.635,15.196c-0.085,1.281-0.171,2.476-0.171,3.756c-0.026,12.089,6.386,23.272,16.818,29.368
		c5.233,3.142,11.226,4.798,17.33,4.781h187.818c28.292,0,51.223-22.931,51.223-51.223
		C503.574,332.382,480.643,309.451,452.351,309.451L452.351,309.451z"/>
</g>
<g>
	<path style="fill:#231F20;" d="M236.19,367.333c-0.546,0-1.101-0.051-1.639-0.154c-48.611-9.673-84.971-50.335-89.171-99.723
		c-0.273-2.988-0.367-6.061-0.367-9.229c-0.179-51.454,35.19-96.214,85.286-107.944c8.409-2.04,17.04-3.056,25.697-3.039
		c57.233-0.239,105.169,43.275,110.437,100.269c0.316,3.304-1.315,6.488-4.183,8.17c-10.782,6.352-18.193,17.16-20.233,29.504
		c-0.205,0.948-0.341,1.912-0.41,2.877c-0.307,4.704-4.371,8.273-9.075,7.965c-1.016-0.068-2.015-0.316-2.945-0.734
		c-4.636-1.989-9.638-2.979-14.684-2.92c-0.333-0.009-0.666,0.017-0.999,0.068c-6.309,0.367-12.405,2.45-17.621,6.027
		c-7.854,5.455-13.045,13.967-14.3,23.443c-0.23,1.528-0.359,3.065-0.376,4.61c-0.009,5.524,1.34,10.97,3.936,15.854
		c2.228,4.158,0.674,9.331-3.483,11.559c-2.322,1.246-5.097,1.349-7.504,0.282c-1.016-0.461-2.075-0.82-3.159-1.059
		c-2.228-0.649-4.542-0.999-6.864-1.024c-8.512,0.034-16.443,4.277-21.198,11.337C241.756,365.882,239.075,367.333,236.19,367.333z
		 M255.996,164.319c-7.308-0.017-14.59,0.837-21.693,2.561c-42.413,9.903-72.37,47.791-72.216,91.348
		c0,2.638,0.068,5.191,0.307,7.752c3.364,39.903,31.596,73.317,70.372,83.297c4.132-4.593,9.195-8.238,14.863-10.689
		c5.549-2.425,11.559-3.628,17.621-3.526c-4.764-27.814,13.924-54.22,41.738-58.983c1.648-0.282,3.304-0.487,4.969-0.606
		c1.263-0.154,2.527-0.205,3.799-0.171c3.603,0,7.197,0.367,10.723,1.11c3.56-12.994,11.44-24.391,22.342-32.305
		C342.042,198.118,302.481,164.106,255.996,164.319z"/>
	<path style="fill:#231F20;" d="M153.891,275.303h-94.25C26.636,275.234-0.068,248.428,0,215.423s26.875-59.709,59.88-59.641
		c3.014,0.009,6.027,0.239,8.998,0.7c-5.037-32.68,17.365-63.26,50.045-68.297c2.979-0.461,5.993-0.692,9.015-0.7
		c6.352-0.034,12.661,0.982,18.671,3.022c19.004,6.172,33.628,21.505,38.887,40.782c5.028-1.195,10.236-1.485,15.367-0.854
		c8.827,0.7,17.305,3.748,24.553,8.827c4.67,3.227,8.776,7.222,12.123,11.807c0.743,0.999,1.426,2.04,2.049,3.125
		c2.416,4.047,1.101,9.288-2.954,11.704c-0.751,0.444-1.562,0.777-2.407,0.982c-42.396,9.92-72.31,47.808-72.139,91.348
		c0,2.638,0.068,5.191,0.307,7.752c0.435,4.695-3.022,8.853-7.718,9.288c-0.273,0.026-0.546,0.034-0.82,0.034H153.891z
		 M59.641,172.856c-23.571,0-42.686,19.115-42.686,42.686s19.115,42.686,42.686,42.686h85.372
		c-0.171-46.323,28.6-87.83,72.037-103.932c-0.435-0.333-0.854-0.657-1.332-0.965c-4.96-3.475-10.765-5.541-16.801-5.976
		c-0.888-0.12-1.784-0.154-2.681-0.111c-4.764-0.026-9.485,0.973-13.83,2.92c-4.303,1.938-9.357,0.017-11.286-4.286
		c-0.418-0.931-0.666-1.929-0.734-2.945c-0.051-0.862-0.171-1.716-0.341-2.561c-0.956-5.814-3.082-11.38-6.249-16.349
		c-5.302-8.196-13.258-14.308-22.547-17.305c-4.286-1.46-8.785-2.194-13.309-2.16c-23.563,0.026-42.66,19.123-42.686,42.686
		c-0.026,6.36,1.4,12.644,4.175,18.372c2.066,4.234,0.307,9.348-3.936,11.414c-2.356,1.153-5.122,1.153-7.479,0
		C72.293,174.248,66.01,172.822,59.641,172.856z"/>
	<path style="fill:#231F20;" d="M452.351,420.435H264.533c-23.546-0.06-42.626-19.14-42.686-42.686c0-1.451,0.085-2.8,0.179-4.269
		c0.692-7.018,3.15-13.753,7.146-19.567c8.068-11.978,21.642-19.064,36.078-18.85c-4.764-27.814,13.924-54.22,41.738-58.983
		c1.648-0.282,3.304-0.478,4.96-0.606c1.263-0.154,2.536-0.205,3.808-0.171c3.603,0,7.197,0.367,10.723,1.11
		c4.081-14.897,13.813-27.618,27.131-35.446c9.237-5.421,19.738-8.298,30.444-8.349c33.064,0.06,59.82,26.918,59.76,59.982
		c-0.009,3.022-0.239,6.036-0.7,9.015c32.621-5.037,63.141,17.322,68.178,49.942c5.037,32.621-17.322,63.141-49.942,68.178
		C458.378,420.195,455.365,420.426,452.351,420.435z M264.533,352.137c-8.512,0.034-16.443,4.277-21.198,11.337
		c-2.365,3.389-3.833,7.316-4.269,11.423c0,0.854-0.12,1.793-0.12,2.851c0.009,9.049,4.798,17.416,12.592,22
		c3.919,2.373,8.409,3.62,12.994,3.611h187.818c23.571,0,42.686-19.115,42.686-42.686c0-23.571-19.115-42.686-42.686-42.686
		c-6.36-0.034-12.652,1.392-18.372,4.175c-4.234,2.066-9.348,0.307-11.414-3.936c-1.152-2.356-1.152-5.122,0-7.479
		c2.775-5.728,4.2-12.012,4.175-18.372c-0.026-23.563-19.123-42.66-42.686-42.686c-4.448-0.034-8.87,0.666-13.087,2.092
		c-3.039,0.948-5.95,2.254-8.682,3.884c-10.799,6.343-18.227,17.16-20.267,29.522c-0.205,0.948-0.341,1.912-0.41,2.877
		c-0.307,4.704-4.371,8.273-9.075,7.965c-1.016-0.068-2.015-0.316-2.945-0.734c-4.636-1.981-9.638-2.979-14.684-2.92
		c-0.333-0.009-0.666,0.017-0.999,0.068c-6.309,0.367-12.405,2.45-17.621,6.027c-7.854,5.455-13.045,13.967-14.3,23.443
		c-0.23,1.528-0.359,3.065-0.376,4.61c-0.009,5.524,1.34,10.97,3.936,15.854c2.228,4.158,0.674,9.331-3.483,11.559
		c-2.322,1.246-5.097,1.349-7.504,0.282c-1.016-0.461-2.075-0.82-3.159-1.059C269.169,352.504,266.855,352.163,264.533,352.137z"/>
</g>
<g>
	<path style="fill:#FF5023;" d="M255.996,130.171c-4.713,0-8.537-3.825-8.537-8.537V87.485c0-4.713,3.825-8.537,8.537-8.537
		c4.713,0,8.537,3.825,8.537,8.537v34.149C264.533,126.346,260.717,130.171,255.996,130.171z"/>
	<path style="fill:#FF5023;" d="M98.254,332.1c-4.713,0-8.537-3.816-8.546-8.529c0-3.458,2.083-6.574,5.276-7.897l31.588-13.062
		c4.354-1.81,9.348,0.265,11.158,4.619c1.81,4.354-0.265,9.348-4.619,11.158l-31.588,13.062
		C100.491,331.878,99.381,332.1,98.254,332.1z"/>
</g>
<path id="SVGCleanerId_0" style="fill:#FF5023;" d="M135.263,387.507c-4.713,0-8.537-3.825-8.537-8.537
	c0-2.262,0.896-4.431,2.501-6.036l24.143-24.16c3.338-3.338,8.742-3.338,12.08,0c3.338,3.338,3.338,8.742,0,12.08l-24.152,24.152
	C139.702,386.602,137.525,387.507,135.263,387.507z"/>
<g>
	<path style="fill:#FF5023;" d="M190.652,433.052c-4.713,0-8.537-3.816-8.537-8.537c0-1.127,0.222-2.237,0.649-3.27l13.07-31.588
		c1.81-4.354,6.804-6.428,11.158-4.619c4.354,1.81,6.428,6.804,4.619,11.158l-13.07,31.588
		C197.217,430.969,194.11,433.052,190.652,433.052z"/>
	<path style="fill:#FF5023;" d="M382.201,214.492c-4.712,0.009-8.546-3.808-8.554-8.52c-0.009-3.458,2.075-6.582,5.276-7.905
		l31.588-13.062c4.354-1.801,9.348,0.265,11.15,4.627c1.801,4.362-0.265,9.348-4.627,11.15l-31.579,13.053
		C384.429,214.262,383.319,214.492,382.201,214.492z"/>
</g>
<path id="SVGCleanerId_1" style="fill:#FF5023;" d="M352.577,170.184c-4.713,0-8.537-3.816-8.546-8.529
	c0-2.271,0.905-4.448,2.51-6.053l24.152-24.152c3.389-3.278,8.793-3.184,12.072,0.213c3.193,3.312,3.193,8.554,0,11.858
	l-24.143,24.16C357.016,169.288,354.848,170.184,352.577,170.184z"/>
<path style="fill:#FF5023;" d="M308.269,140.569c-1.118,0-2.228-0.222-3.27-0.649c-4.354-1.801-6.428-6.796-4.619-11.158l0,0
	l13.07-31.545c1.801-4.354,6.796-6.428,11.15-4.627c4.354,1.801,6.428,6.796,4.627,11.158l-13.07,31.588
	C314.826,138.511,311.718,140.569,308.269,140.569z"/>
<g>
	<path id="SVGCleanerId_0_1_" style="fill:#FF5023;" d="M135.263,387.507c-4.713,0-8.537-3.825-8.537-8.537
		c0-2.262,0.896-4.431,2.501-6.036l24.143-24.16c3.338-3.338,8.742-3.338,12.08,0c3.338,3.338,3.338,8.742,0,12.08l-24.152,24.152
		C139.702,386.602,137.525,387.507,135.263,387.507z"/>
</g>
<g>
	<path id="SVGCleanerId_1_1_" style="fill:#FF5023;" d="M352.577,170.184c-4.713,0-8.537-3.816-8.546-8.529
		c0-2.271,0.905-4.448,2.51-6.053l24.152-24.152c3.389-3.278,8.793-3.184,12.072,0.213c3.193,3.312,3.193,8.554,0,11.858
		l-24.143,24.16C357.016,169.288,354.848,170.184,352.577,170.184z"/>
</g>
<g>
</g>
<g>
</g>
<g>
</g>
<g>
</g>
<g>
</g>
<g>
</g>
<g>
</g>
<g>
</g>
<g>
</g>
<g>
</g>
<g>
</g>
<g>
</g>
<g>
</g>
<g>
</g>
<g>
</g>
</svg>
