<?xml version="1.0" encoding="iso-8859-1"?>
<!-- Generator: Adobe Illustrator 19.0.0, SVG Export Plug-In . SVG Version: 6.00 Build 0)  -->
<svg version="1.1" id="Capa_1" xmlns="http://www.w3.org/2000/svg" xmlns:xlink="http://www.w3.org/1999/xlink" x="0px" y="0px"
	 viewBox="0 0 512.005 512.005" style="enable-background:new 0 0 512.005 512.005;" xml:space="preserve">
<path style="fill:#78B9EB;" d="M22.712,240.07c-22.969,29.827-17.417,72.635,12.419,95.612
	c11.941,9.194,26.586,14.176,41.657,14.159h324.11c2.9,0,5.715-0.085,8.529-0.341c56.335-4.614,98.274-54.016,93.659-110.359
	c-4.35-53.18-48.83-94.094-102.188-94c-11.685-0.034-23.285,1.962-34.287,5.885c0.085-1.962,0.171-3.923,0.171-5.885
	c0-47.755-33.017-89.164-79.578-99.792c-1.791-0.426-3.668-0.768-5.544-1.024c-2.644-0.512-5.288-0.853-8.017-1.109
	c-3.071-0.256-6.141-0.426-9.212-0.426c-27.532-0.034-53.913,11.037-73.181,30.705c-6.482,6.542-12.001,13.979-16.376,22.091
	c-0.111,0.247-0.256,0.478-0.426,0.682v0.085c-3.488,6.329-6.26,13.016-8.273,19.958c-1.697,5.885-2.866,11.907-3.497,17.997
	c-0.418,3.599-0.614,7.216-0.597,10.832c-0.017,4.452,0.264,8.896,0.853,13.306c-8.444-3.207-17.408-4.819-26.441-4.776
	c-11.455,0.009-22.756,2.567-33.093,7.506c-3.335,1.629-6.55,3.48-9.638,5.544c-1.825,1.186-3.565,2.491-5.203,3.923
	c-2.908,2.294-5.646,4.81-8.188,7.506c-2.456,2.584-4.708,5.348-6.738,8.273c-6.073,8.623-10.278,18.406-12.367,28.743
	c-4.93,1.143-9.715,2.857-14.244,5.118c-5.553,2.704-10.721,6.15-15.353,10.235C28.359,233.383,25.357,236.582,22.712,240.07z"/>
<path style="fill:#41769E;" d="M61.264,215.165c2.09-10.337,6.295-20.12,12.367-28.743c2.03-2.926,4.282-5.689,6.738-8.273
	c2.542-2.695,5.28-5.211,8.188-7.506c1.638-1.433,3.378-2.738,5.203-3.923c3.088-2.064,6.303-3.915,9.638-5.544
	c10.337-4.938,21.639-7.497,33.093-7.506c9.032-0.043,17.997,1.569,26.441,4.776c-0.589-4.41-0.87-8.853-0.853-13.306
	c-0.017-3.616,0.179-7.233,0.597-10.832c0.631-6.09,1.8-12.111,3.497-17.997c2.013-6.943,4.785-13.63,8.273-19.958v-0.085
	c0.171-0.205,0.316-0.435,0.426-0.682c4.375-8.111,9.894-15.549,16.376-22.091c19.268-19.668,45.648-30.739,73.181-30.705
	c3.07,0,6.141,0.171,9.212,0.426c2.729,0.256,5.373,0.597,8.017,1.109c-17.903-33.085-59.235-45.392-92.32-27.498
	c-20.146,10.9-33.469,31.2-35.447,54.024c-10.039-7.207-22.099-11.062-34.458-11.003c-33.042,0.068-59.773,26.901-59.704,59.943
	c0.009,5.723,0.844,11.421,2.473,16.905c-0.819-0.077-1.646-0.102-2.473-0.085c-28.266,0.051-51.133,23.012-51.081,51.269
	c0.034,17.169,8.674,33.187,23.02,42.638c4.631-4.085,9.8-7.531,15.353-10.235C51.55,218.022,56.335,216.308,61.264,215.165z"/>
<g>
	<path style="fill:#006DF0;" d="M255.901,503.367c23.549,0,42.646-19.097,42.646-42.646s-42.646-76.763-42.646-76.763
		s-42.646,53.214-42.646,76.763C213.255,484.27,232.343,503.367,255.901,503.367z"/>
	<path style="fill:#006DF0;" d="M136.492,503.367c23.549,0,42.646-19.097,42.646-42.646s-42.646-76.763-42.646-76.763
		s-42.646,53.214-42.646,76.763S112.934,503.367,136.492,503.367z"/>
	<path style="fill:#006DF0;" d="M332.664,460.721c0,23.549,19.097,42.646,42.646,42.646s42.646-19.097,42.646-42.646
		s-42.646-76.763-42.646-76.763S332.664,437.172,332.664,460.721z"/>
</g>
<g>
	<path style="fill:#231F20;" d="M400.898,136.611c-8.666-0.017-17.297,0.989-25.733,2.985c-2.721-49.486-37.75-91.254-86-102.547
		c-0.776-0.188-1.561-0.341-2.337-0.495C264.686,0.553,217.545-10.68,181.543,11.462c-16.82,10.346-28.982,26.79-33.963,45.896
		c-34.373-15.515-74.818-0.23-90.333,34.142c-3.983,8.819-6.039,18.38-6.047,28.053c0,3.028,0.196,6.056,0.589,9.058
		c-32.624,4.307-55.576,34.236-51.269,66.86c1.808,13.723,8.342,26.389,18.474,35.814c-1.032,1.186-2.098,2.354-3.036,3.599
		C5.586,248.25-0.018,264.694,0.025,281.607c0.051,42.373,34.39,76.712,76.763,76.763h324.11c3.164,0,6.235-0.094,9.229-0.367
		c61.035-4.973,106.479-58.485,101.506-119.52C506.933,180.843,458.726,136.491,400.898,136.611z M59.729,145.14h0.665
		c0.281-0.017,0.571-0.017,0.853,0c4.683,0.503,8.887-2.883,9.399-7.565c0.119-1.126,0.017-2.26-0.307-3.343
		c-1.39-4.768-2.09-9.715-2.081-14.679c0.026-28.249,22.927-51.15,51.175-51.175c10.568-0.06,20.888,3.224,29.477,9.382
		c3.821,2.746,9.152,1.876,11.907-1.945c0.896-1.245,1.441-2.712,1.569-4.248c3.002-32.087,30.808-56.063,62.988-54.314
		c14.38,0.819,27.967,6.866,38.202,17.007c-0.537,0-1.066,0.085-1.604,0.094h-0.35c-3.958,0.102-7.915,0.418-11.839,0.938
		l-0.495,0.077c-3.821,0.52-7.617,1.237-11.361,2.158l-0.708,0.179c-3.616,0.913-7.173,1.996-10.662,3.258l-1.066,0.392
		c-3.292,1.237-6.525,2.618-9.689,4.171l-1.535,0.742c-2.934,1.484-5.791,3.122-8.589,4.87c-0.648,0.409-1.305,0.776-1.953,1.194
		c-2.627,1.706-5.177,3.608-7.676,5.57c-0.682,0.529-1.39,1.006-2.056,1.552c-3.079,2.516-6.022,5.203-8.819,8.035
		c-7.054,7.122-13.05,15.216-17.809,24.035v-0.051l-0.068,0.102c-0.256,0.401-0.478,0.81-0.674,1.245
		c-3.625,6.687-6.525,13.749-8.649,21.059c-1.834,6.329-3.105,12.811-3.778,19.361c-0.461,3.949-0.682,7.924-0.648,11.898
		c0,0.571,0,1.143,0,1.706c-18.21-3.65-37.119-1.313-53.896,6.661c-3.676,1.8-7.224,3.838-10.627,6.115
		c-2.03,1.305-3.958,2.755-5.774,4.341c-3.207,2.525-6.226,5.28-9.024,8.256c-2.763,2.891-5.297,5.996-7.574,9.28
		c-5.706,8.12-9.945,17.178-12.521,26.756c-3.744,1.134-7.386,2.593-10.883,4.358c-3.702,1.851-7.258,4-10.627,6.405
		c-0.358,0.247-0.785,0.426-1.134,0.682c-17.63-15.626-19.25-42.578-3.633-60.199C35.941,150.377,47.541,145.149,59.729,145.14z
		 M408.642,341.005c-2.559,0.239-5.117,0.307-7.745,0.307H76.788c-32.957-0.034-59.67-26.748-59.704-59.704
		c-0.026-13.186,4.35-25.997,12.436-36.403c2.311-3.036,4.93-5.817,7.813-8.316c4.094-3.599,8.657-6.636,13.561-9.015
		c3.932-1.962,8.086-3.446,12.367-4.427c3.216-0.776,5.698-3.352,6.354-6.593c1.868-9.169,5.604-17.86,10.977-25.519
		c1.8-2.601,3.795-5.066,5.97-7.361c2.38-2.516,4.947-4.853,7.676-6.985c1.348-1.16,2.772-2.218,4.265-3.181
		c2.729-1.834,5.578-3.488,8.529-4.938c2.158-1.015,4.367-1.919,6.619-2.712c1.706-0.589,3.412-1.058,5.066-1.51
		c0.537-0.145,1.066-0.333,1.603-0.461c1.808-0.435,3.625-0.759,5.45-1.049c0.495-0.077,0.989-0.188,1.493-0.256
		c1.638-0.222,3.284-0.35,4.921-0.452c0.853-0.051,1.638-0.119,2.456-0.136c1.603-0.051,3.19,0,4.776,0c0.571,0,1.143,0,1.706,0.077
		c1.586,0.102,3.156,0.281,4.717,0.495c0.589,0.077,1.186,0.136,1.766,0.23c1.603,0.264,3.181,0.623,4.751,0.998
		c0.495,0.128,1.006,0.213,1.501,0.35c2.021,0.537,4.017,1.177,5.97,1.928c4.393,1.697,9.331-0.486,11.028-4.887
		c0.52-1.348,0.691-2.798,0.495-4.222c-0.529-4.017-0.776-8.069-0.742-12.12c-0.017-3.309,0.162-6.619,0.546-9.902
		c0.58-5.595,1.655-11.131,3.207-16.538c1.834-6.329,4.367-12.436,7.548-18.21c0.06-0.111,0.119-0.222,0.171-0.333
		s0.205-0.358,0.299-0.546l0,0c4-7.395,9.032-14.184,14.96-20.146c17.63-18.073,41.836-28.232,67.091-28.146
		c2.84,0,5.672,0.162,8.41,0.384c2.448,0.239,4.828,0.537,7.19,0.998l0.486,0.077c1.612,0.205,3.216,0.486,4.802,0.853
		c42.561,9.945,72.737,47.806,72.933,91.51c0,1.842-0.085,3.685-0.162,5.518c-0.205,4.708,3.446,8.683,8.154,8.887
		c1.109,0.051,2.218-0.119,3.258-0.495c10.073-3.599,20.7-5.416,31.396-5.382c51.815-0.085,93.89,41.844,93.983,93.659
		C494.966,296.261,457.421,337.047,408.642,341.005z"/>
	<path style="fill:#231F20;" d="M255.901,511.896c-28.249-0.026-51.15-22.927-51.175-51.175c0-25.801,39.968-76.413,44.522-82.094
		c3.19-3.676,8.751-4.068,12.427-0.879c0.316,0.273,0.606,0.563,0.879,0.879c4.555,5.68,44.522,56.293,44.522,82.094
		C307.051,488.97,284.15,511.862,255.901,511.896z M255.901,397.903c-15.284,20.41-34.117,49.845-34.117,62.818
		c0,18.841,15.276,34.117,34.117,34.117s34.117-15.276,34.117-34.117C290.018,447.748,271.185,418.314,255.901,397.903z"/>
	<path style="fill:#231F20;" d="M136.492,511.896c-28.249-0.026-51.15-22.927-51.175-51.175c0-25.801,39.968-76.413,44.522-82.094
		c3.19-3.676,8.751-4.068,12.427-0.879c0.316,0.273,0.606,0.563,0.879,0.879c4.555,5.68,44.522,56.293,44.522,82.094
		C187.642,488.97,164.741,511.862,136.492,511.896z M136.492,397.903c-15.284,20.41-34.117,49.845-34.117,62.818
		c0,18.841,15.276,34.117,34.117,34.117s34.117-15.276,34.117-34.117C170.609,447.748,151.776,418.314,136.492,397.903z"/>
	<path style="fill:#231F20;" d="M375.31,511.896c-28.249-0.026-51.15-22.927-51.175-51.175c0-25.801,39.968-76.413,44.522-82.094
		c3.19-3.676,8.751-4.068,12.427-0.879c0.316,0.273,0.606,0.563,0.879,0.879c4.555,5.68,44.522,56.293,44.522,82.094
		C426.46,488.97,403.559,511.862,375.31,511.896z M375.31,397.903c-15.284,20.41-34.117,49.845-34.117,62.818
		c0,18.841,15.276,34.117,34.117,34.117s34.117-15.276,34.117-34.117C409.427,447.748,390.594,418.314,375.31,397.903z"/>
</g>
<g>
</g>
<g>
</g>
<g>
</g>
<g>
</g>
<g>
</g>
<g>
</g>
<g>
</g>
<g>
</g>
<g>
</g>
<g>
</g>
<g>
</g>
<g>
</g>
<g>
</g>
<g>
</g>
<g>
</g>
</svg>
