<?xml version="1.0" encoding="iso-8859-1"?>
<!-- Generator: Adobe Illustrator 19.0.0, SVG Export Plug-In . SVG Version: 6.00 Build 0)  -->
<svg version="1.1" id="Capa_1" xmlns="http://www.w3.org/2000/svg" xmlns:xlink="http://www.w3.org/1999/xlink" x="0px" y="0px"
	 viewBox="0 0 512 512" style="enable-background:new 0 0 512 512;" xml:space="preserve">
<circle style="fill:#FF5023;" cx="256" cy="256" r="170.667"/>
<g>
	<path style="fill:#231F20;" d="M256,435.2c-98.97,0-179.2-80.23-179.2-179.2S157.03,76.8,256,76.8S435.2,157.03,435.2,256
		C435.089,354.927,354.927,435.089,256,435.2z M256,93.867C166.46,93.867,93.867,166.46,93.867,256S166.46,418.133,256,418.133
		S418.133,345.54,418.133,256C418.031,166.494,345.506,93.969,256,93.867z"/>
	<path style="fill:#231F20;" d="M256,68.267c-4.71,0-8.533-3.823-8.533-8.533v-51.2C247.467,3.823,251.29,0,256,0
		c4.71,0,8.533,3.823,8.533,8.533v51.2C264.533,64.444,260.71,68.267,256,68.267z"/>
	<path style="fill:#231F20;" d="M180.907,83.209c-3.456,0.009-6.571-2.074-7.893-5.265L159.957,46.37
		c-1.894-4.318,0.06-9.353,4.378-11.247c4.318-1.894,9.353,0.06,11.247,4.378c0.051,0.111,0.094,0.222,0.137,0.341l13.065,31.573
		c1.809,4.352-0.265,9.344-4.617,11.153C183.134,82.987,182.025,83.209,180.907,83.209z"/>
	<path style="fill:#231F20;" d="M74.667,189.44c-1.118,0-2.227-0.23-3.26-0.657l-31.573-13.065
		c-4.395-1.715-6.562-6.656-4.847-11.051c1.715-4.395,6.656-6.562,11.051-4.847c0.111,0.043,0.222,0.094,0.341,0.137l31.573,13.056
		c4.361,1.792,6.443,6.775,4.651,11.136C81.271,187.358,78.14,189.457,74.667,189.44z"/>
	<path style="fill:#231F20;" d="M43.145,352.708c-4.71,0.009-8.542-3.806-8.55-8.516c-0.009-3.456,2.074-6.579,5.274-7.902
		l31.573-13.065c4.352-1.809,9.344,0.264,11.153,4.617c1.809,4.352-0.265,9.344-4.617,11.153l0,0l-31.573,13.056
		C45.372,352.478,44.262,352.708,43.145,352.708z"/>
	<path style="fill:#231F20;" d="M167.825,477.397c-1.118,0-2.227-0.222-3.26-0.649c-4.352-1.801-6.426-6.793-4.617-11.153l0,0
		l13.056-31.573c1.809-4.352,6.801-6.426,11.153-4.617s6.426,6.801,4.617,11.153l0,0l-13.065,31.573
		C174.387,475.324,171.273,477.397,167.825,477.397z"/>
	<path style="fill:#231F20;" d="M344.175,477.397c-3.447,0-6.562-2.074-7.885-5.265l-13.065-31.573
		c-1.809-4.352,0.264-9.344,4.617-11.153s9.344,0.265,11.153,4.617l0,0l13.056,31.573c1.809,4.352-0.256,9.344-4.617,11.153l0,0
		C346.402,477.175,345.293,477.397,344.175,477.397z"/>
	<path style="fill:#231F20;" d="M468.855,352.708c-1.118,0-2.227-0.23-3.26-0.657l-31.573-13.056
		c-4.352-1.809-6.426-6.801-4.617-11.153s6.801-6.426,11.153-4.617l31.573,13.065c4.352,1.801,6.426,6.793,4.625,11.145
		C475.435,350.635,472.311,352.717,468.855,352.708z"/>
	<path style="fill:#231F20;" d="M437.333,189.44c-4.71,0.017-8.55-3.789-8.567-8.499c-0.017-3.473,2.082-6.605,5.291-7.927
		l31.573-13.056c4.318-1.894,9.353,0.06,11.247,4.378c1.894,4.318-0.06,9.353-4.378,11.247c-0.111,0.051-0.222,0.094-0.341,0.137
		l-31.573,13.065C439.561,189.21,438.451,189.44,437.333,189.44z"/>
	<path style="fill:#231F20;" d="M331.093,83.209c-4.71,0-8.533-3.823-8.525-8.542c0-1.118,0.222-2.227,0.649-3.26l13.065-31.573
		c1.715-4.395,6.656-6.562,11.051-4.847s6.562,6.656,4.847,11.051c-0.043,0.111-0.094,0.222-0.137,0.341l-13.056,31.573
		C337.664,81.135,334.549,83.217,331.093,83.209z"/>
	<path style="fill:#231F20;" d="M117.214,125.747c-2.261,0-4.437-0.896-6.033-2.5L74.982,87.04
		c-3.465-3.191-3.695-8.593-0.503-12.058c3.191-3.465,8.593-3.695,12.058-0.503c0.171,0.162,0.341,0.324,0.503,0.503l36.198,36.198
		c3.328,3.337,3.328,8.738,0,12.066c-1.596,1.596-3.772,2.5-6.033,2.5C117.205,125.747,117.214,125.747,117.214,125.747z"/>
	<path style="fill:#231F20;" d="M59.733,264.533h-51.2C3.823,264.533,0,260.71,0,256c0-4.71,3.823-8.533,8.533-8.533h51.2
		c4.71,0,8.533,3.823,8.533,8.533C68.267,260.71,64.444,264.533,59.733,264.533z"/>
	<path style="fill:#231F20;" d="M81.015,439.518c-4.71,0-8.533-3.823-8.533-8.533c0-2.261,0.896-4.429,2.5-6.033l36.198-36.198
		c3.277-3.388,8.678-3.482,12.066-0.213c3.388,3.277,3.482,8.678,0.213,12.066c-0.068,0.068-0.137,0.145-0.213,0.213L87.04,437.018
		C85.444,438.613,83.277,439.518,81.015,439.518z"/>
	<path style="fill:#231F20;" d="M256,512c-4.71,0-8.533-3.823-8.533-8.533v-51.2c0-4.71,3.823-8.533,8.533-8.533
		c4.71,0,8.533,3.823,8.533,8.533v51.2C264.533,508.177,260.71,512,256,512z"/>
	<path style="fill:#231F20;" d="M430.985,439.518c-2.261,0-4.437-0.896-6.033-2.5l-36.198-36.198
		c-3.388-3.277-3.482-8.678-0.205-12.066c3.277-3.388,8.678-3.482,12.066-0.205c0.068,0.068,0.137,0.137,0.205,0.205l36.198,36.207
		c3.328,3.337,3.328,8.738,0,12.066C435.413,438.63,433.246,439.526,430.985,439.518L430.985,439.518z"/>
	<path style="fill:#231F20;" d="M503.467,264.533h-51.2c-4.71,0-8.533-3.823-8.533-8.533c0-4.71,3.823-8.533,8.533-8.533h51.2
		c4.71,0,8.533,3.823,8.533,8.533C512,260.71,508.177,264.533,503.467,264.533z"/>
	<path style="fill:#231F20;" d="M394.786,125.747c-4.71,0-8.533-3.823-8.533-8.533c0-2.261,0.896-4.429,2.5-6.033l36.207-36.198
		c3.191-3.465,8.593-3.695,12.058-0.503c3.465,3.191,3.695,8.593,0.503,12.058c-0.162,0.171-0.324,0.341-0.503,0.503l-36.198,36.198
		C399.223,124.843,397.047,125.747,394.786,125.747z"/>
</g>
<g>
</g>
<g>
</g>
<g>
</g>
<g>
</g>
<g>
</g>
<g>
</g>
<g>
</g>
<g>
</g>
<g>
</g>
<g>
</g>
<g>
</g>
<g>
</g>
<g>
</g>
<g>
</g>
<g>
</g>
</svg>
